#VRML V2.0 utf8

Shape {
  appearance Appearance {
    material Material {
      diffuseColor 0.9020 0.7843 0.6863
      specularColor 0.4510 0.3922 0.3412
      ambientIntensity 0.2
      transparency 0.0000
      shininess 0.5
    }
  }
  geometry IndexedFaceSet {
    ccw TRUE
    solid FALSE
    coord DEF co Coordinate {
      point [
        -0.196850 0.374016 0.007874,
        -0.196850 0.374016 0.000000,
        -0.444882 0.374016 0.007874,
        -0.444882 0.374016 0.000000,
        -0.472441 0.118110 0.000000,
        -0.472441 0.118110 0.007874,
        -0.472441 0.346457 0.000000,
        -0.472441 0.346457 0.007874,
        -0.196850 0.118110 0.007874,
        -0.196850 0.118110 0.000000,
        -0.465329 0.350095 0.007874,
        -0.458870 0.354796 0.007874,
        -0.453222 0.360445 0.007874,
        -0.448520 0.366904 0.007874,
        -0.465329 0.350095 0.000000,
        -0.458870 0.354796 0.000000,
        -0.448520 0.366904 0.000000,
        -0.453222 0.360445 0.000000,
        0.472441 0.118110 0.007874,
        0.472441 0.118110 0.000000,
        0.472441 0.346457 0.007874,
        0.472441 0.346457 0.000000,
        0.196850 0.374016 0.000000,
        0.196850 0.374016 0.007874,
        0.444882 0.374016 0.000000,
        0.444882 0.374016 0.007874,
        0.196850 0.118110 0.007874,
        0.196850 0.118110 0.000000,
        0.465329 0.350095 0.007874,
        0.458870 0.354796 0.007874,
        0.448520 0.366904 0.007874,
        0.453222 0.360445 0.007874,
        0.465329 0.350095 0.000000,
        0.458870 0.354796 0.000000,
        0.453222 0.360445 0.000000,
        0.448520 0.366904 0.000000,
        0.472441 -0.118110 0.000000,
        0.472441 -0.118110 0.007874,
        0.472441 -0.346457 0.000000,
        0.472441 -0.346457 0.007874,
        0.196850 -0.374016 0.007874,
        0.196850 -0.374016 0.000000,
        0.444882 -0.374016 0.007874,
        0.444882 -0.374016 0.000000,
        0.196850 -0.118110 0.007874,
        0.196850 -0.118110 0.000000,
        0.448520 -0.366904 0.007874,
        0.453222 -0.360445 0.007874,
        0.465329 -0.350095 0.007874,
        0.458870 -0.354796 0.007874,
        0.465329 -0.350095 0.000000,
        0.448520 -0.366904 0.000000,
        0.458870 -0.354796 0.000000,
        0.453222 -0.360445 0.000000,
        -0.472441 -0.118110 0.007874,
        -0.472441 -0.118110 0.000000,
        -0.472441 -0.346457 0.007874,
        -0.472441 -0.346457 0.000000,
        -0.196850 -0.374016 0.000000,
        -0.196850 -0.374016 0.007874,
        -0.444882 -0.374016 0.000000,
        -0.444882 -0.374016 0.007874,
        -0.269861 -0.118110 0.007874,
        -0.269861 -0.118110 0.000000,
        -0.196850 -0.191120 0.007874,
        -0.196850 -0.191120 0.000000,
        -0.448520 -0.366904 0.007874,
        -0.465329 -0.350095 0.007874,
        -0.458870 -0.354796 0.007874,
        -0.453222 -0.360445 0.007874,
        -0.465329 -0.350095 0.000000,
        -0.448520 -0.366904 0.000000,
        -0.453222 -0.360445 0.000000,
        -0.458870 -0.354796 0.000000,
      ]
    }
    coordIndex [
      0, 1, 2, -1,
      2, 1, 3, -1,
      4, 5, 6, -1,
      6, 5, 7, -1,
      0, 8, 1, -1,
      1, 8, 9, -1,
      8, 5, 9, -1,
      9, 5, 4, -1,
      7, 5, 10, -1,
      10, 5, 8, -1,
      10, 8, 11, -1,
      11, 8, 12, -1,
      0, 2, 8, -1,
      8, 2, 13, -1,
      8, 13, 12, -1,
      4, 6, 9, -1,
      9, 6, 14, -1,
      9, 14, 15, -1,
      3, 1, 16, -1,
      16, 1, 9, -1,
      16, 9, 17, -1,
      17, 9, 15, -1,
      2, 3, 13, -1,
      13, 3, 16, -1,
      13, 16, 12, -1,
      12, 16, 17, -1,
      12, 17, 11, -1,
      11, 17, 15, -1,
      11, 15, 10, -1,
      10, 15, 14, -1,
      10, 14, 7, -1,
      7, 14, 6, -1,
      18, 19, 20, -1,
      20, 19, 21, -1,
      22, 23, 24, -1,
      24, 23, 25, -1,
      26, 23, 27, -1,
      27, 23, 22, -1,
      18, 26, 19, -1,
      19, 26, 27, -1,
      18, 20, 26, -1,
      26, 20, 28, -1,
      26, 28, 29, -1,
      25, 23, 30, -1,
      30, 23, 26, -1,
      30, 26, 31, -1,
      31, 26, 29, -1,
      21, 19, 32, -1,
      32, 19, 27, -1,
      32, 27, 33, -1,
      33, 27, 34, -1,
      22, 24, 27, -1,
      27, 24, 35, -1,
      27, 35, 34, -1,
      20, 21, 28, -1,
      28, 21, 32, -1,
      28, 32, 29, -1,
      29, 32, 33, -1,
      29, 33, 31, -1,
      31, 33, 34, -1,
      31, 34, 30, -1,
      30, 34, 35, -1,
      30, 35, 25, -1,
      25, 35, 24, -1,
      36, 37, 38, -1,
      38, 37, 39, -1,
      40, 41, 42, -1,
      42, 41, 43, -1,
      44, 37, 45, -1,
      45, 37, 36, -1,
      40, 44, 41, -1,
      41, 44, 45, -1,
      40, 42, 44, -1,
      44, 42, 46, -1,
      44, 46, 47, -1,
      39, 37, 48, -1,
      48, 37, 44, -1,
      48, 44, 49, -1,
      49, 44, 47, -1,
      36, 38, 45, -1,
      45, 38, 50, -1,
      43, 41, 51, -1,
      51, 41, 45, -1,
      50, 52, 45, -1,
      45, 52, 53, -1,
      45, 53, 51, -1,
      42, 43, 46, -1,
      46, 43, 51, -1,
      46, 51, 47, -1,
      47, 51, 53, -1,
      47, 53, 49, -1,
      49, 53, 52, -1,
      49, 52, 48, -1,
      48, 52, 50, -1,
      48, 50, 39, -1,
      39, 50, 38, -1,
      54, 55, 56, -1,
      56, 55, 57, -1,
      58, 59, 60, -1,
      60, 59, 61, -1,
      54, 62, 55, -1,
      55, 62, 63, -1,
      64, 59, 65, -1,
      65, 59, 58, -1,
      62, 64, 63, -1,
      63, 64, 65, -1,
      62, 54, 56, -1,
      61, 59, 66, -1,
      66, 59, 64, -1,
      56, 67, 62, -1,
      62, 67, 68, -1,
      62, 68, 64, -1,
      64, 68, 69, -1,
      64, 69, 66, -1,
      65, 58, 60, -1,
      57, 55, 70, -1,
      70, 55, 63, -1,
      60, 71, 65, -1,
      65, 71, 72, -1,
      65, 72, 63, -1,
      63, 72, 73, -1,
      63, 73, 70, -1,
      56, 57, 67, -1,
      67, 57, 70, -1,
      67, 70, 68, -1,
      68, 70, 73, -1,
      68, 73, 69, -1,
      69, 73, 72, -1,
      69, 72, 66, -1,
      66, 72, 71, -1,
      66, 71, 61, -1,
      61, 71, 60, -1,
    ]
  }
}

Shape {
  appearance Appearance {
    material Material {
      diffuseColor 0.5098 0.5098 0.6275
      specularColor 0.2549 0.2549 0.3137
      ambientIntensity 0.2
      transparency 0.0000
      shininess 0.5
    }
  }
  geometry IndexedFaceSet {
    ccw TRUE
    solid FALSE
    coord DEF co Coordinate {
      point [
        0.492126 0.342520 0.007874,
        0.492126 0.342520 0.165354,
        0.492126 -0.078752 0.007874,
        0.492126 -0.342520 0.165354,
        0.492126 -0.342520 0.007874,
        -0.440945 0.393701 0.007874,
        -0.440945 0.393701 0.165354,
        0.077404 0.393701 0.007874,
        0.440945 0.393701 0.165354,
        0.440945 0.393701 0.007874,
        -0.492126 0.342520 0.165354,
        -0.492126 0.342520 0.007874,
        -0.492126 -0.342520 0.165354,
        -0.492126 -0.078752 0.007874,
        -0.492126 -0.342520 0.007874,
        -0.440945 -0.393701 0.165354,
        -0.440945 -0.393701 0.007874,
        0.440945 -0.393701 0.165354,
        0.077404 -0.393701 0.007874,
        0.440945 -0.393701 0.007874,
        -0.478880 -0.344264 0.007874,
        0.442689 -0.380454 0.007874,
        0.123117 0.046440 0.007874,
        0.136685 0.044916 0.007874,
        0.090847 -0.055646 0.007874,
        0.106368 0.044264 0.007874,
        0.275694 -0.077912 0.007874,
        0.137902 -0.078752 0.007874,
        0.205116 -0.077912 0.007874,
        0.144069 -0.078185 0.007874,
        0.158080 -0.073709 0.007874,
        0.442689 0.380454 0.007874,
        0.174869 -0.010485 0.007874,
        0.093317 -0.057014 0.007874,
        0.173613 -0.024686 0.007874,
        0.107924 -0.062438 0.007874,
        0.126215 -0.064469 0.007874,
        0.090847 0.037618 0.007874,
        0.090847 0.056102 0.007874,
        0.146972 0.041207 0.007874,
        0.156513 0.034833 0.007874,
        0.164838 0.025655 0.007874,
        0.257209 0.059883 0.007874,
        0.170526 0.015020 0.007874,
        0.174206 0.000282 0.007874,
        0.156898 -0.054194 0.007874,
        0.164207 -0.046578 0.007874,
        0.169862 -0.036957 0.007874,
        0.148359 -0.059707 0.007874,
        0.138275 -0.063207 0.007874,
        0.447802 0.368110 0.007874,
        0.455935 0.357510 0.007874,
        0.275694 0.059883 0.007874,
        0.466535 0.349377 0.007874,
        0.187357 0.020734 0.007874,
        0.179835 0.034098 0.007874,
        0.168581 0.046056 0.007874,
        0.154279 0.055165 0.007874,
        0.138905 0.060102 0.007874,
        0.123274 0.061564 0.007874,
        0.106778 0.060426 0.007874,
        0.169257 -0.066902 0.007874,
        0.179826 -0.056202 0.007874,
        0.205116 -0.062788 0.007874,
        0.187409 -0.043265 0.007874,
        0.257209 -0.062788 0.007874,
        0.191799 -0.028778 0.007874,
        0.193353 -0.011614 0.007874,
        0.191987 0.004834 0.007874,
        0.447802 -0.368110 0.007874,
        0.478880 -0.344264 0.007874,
        0.478880 0.344264 0.007874,
        0.090847 -0.070770 0.007874,
        0.105535 -0.076801 0.007874,
        0.077404 -0.078752 0.007874,
        0.117703 -0.078752 0.007874,
        0.466535 -0.349377 0.007874,
        0.455935 -0.357510 0.007874,
        0.128762 -0.079592 0.007874,
        0.121522 -0.079364 0.007874,
        -0.009979 -0.077912 0.007874,
        0.063960 -0.077912 0.007874,
        0.063960 0.059883 0.007874,
        -0.141759 -0.038272 0.007874,
        -0.134295 -0.050821 0.007874,
        -0.157857 -0.077912 0.007874,
        -0.123294 -0.062041 0.007874,
        -0.006618 0.044759 0.007874,
        0.045475 0.044759 0.007874,
        0.045475 -0.000612 0.007874,
        -0.109520 -0.070685 0.007874,
        -0.093699 -0.075968 0.007874,
        -0.074334 -0.077912 0.007874,
        -0.036866 0.059883 0.007874,
        -0.003257 -0.000612 0.007874,
        -0.003257 -0.015736 0.007874,
        0.045475 -0.015736 0.007874,
        0.045475 -0.062788 0.007874,
        -0.009979 -0.062788 0.007874,
        -0.036866 -0.077912 0.007874,
        -0.108370 0.053666 0.007874,
        -0.209950 0.059883 0.007874,
        -0.092510 0.058416 0.007874,
        -0.075752 0.059883 0.007874,
        -0.123695 0.044591 0.007874,
        -0.135137 0.033187 0.007874,
        -0.142094 0.021586 0.007874,
        -0.006618 0.059883 0.007874,
        -0.282209 -0.077912 0.007874,
        -0.262043 -0.077912 0.007874,
        -0.146335 0.008079 0.007874,
        -0.147774 -0.007281 0.007874,
        -0.146348 -0.023263 0.007874,
        -0.442689 0.380454 0.007874,
        -0.228435 0.059883 0.007874,
        -0.447802 0.368110 0.007874,
        -0.478880 0.344264 0.007874,
        -0.466535 0.349377 0.007874,
        -0.455935 0.357510 0.007874,
        -0.178022 -0.077912 0.007874,
        -0.442689 -0.380454 0.007874,
        -0.447802 -0.368110 0.007874,
        -0.455935 -0.357510 0.007874,
        -0.466535 -0.349377 0.007874,
        -0.191176 -0.039262 0.007874,
        -0.248101 -0.039262 0.007874,
        0.478880 -0.344264 0.165354,
        0.439420 -0.299877 0.165354,
        0.441432 -0.284592 0.165354,
        -0.441432 0.284592 0.165354,
        -0.439420 0.299877 0.165354,
        0.442689 0.380454 0.165354,
        0.397661 0.341635 0.165354,
        0.442689 -0.380454 0.165354,
        -0.478880 0.344264 0.165354,
        -0.447802 -0.368110 0.165354,
        -0.442689 -0.380454 0.165354,
        -0.411904 -0.335735 0.165354,
        -0.397661 -0.341635 0.165354,
        -0.397661 0.341635 0.165354,
        -0.442689 0.380454 0.165354,
        -0.447802 0.368110 0.165354,
        -0.441432 -0.284592 0.165354,
        -0.439420 -0.299877 0.165354,
        -0.478880 -0.344264 0.165354,
        -0.466535 -0.349377 0.165354,
        -0.382377 0.343647 0.165354,
        0.382377 0.343647 0.165354,
        0.466535 -0.349377 0.165354,
        0.433520 -0.314120 0.165354,
        0.455935 -0.357510 0.165354,
        0.424135 -0.326350 0.165354,
        0.447802 -0.368110 0.165354,
        0.411904 -0.335735 0.165354,
        -0.466535 0.349377 0.165354,
        -0.433520 0.314120 0.165354,
        -0.455935 0.357510 0.165354,
        -0.424135 0.326350 0.165354,
        -0.411904 0.335735 0.165354,
        0.441432 0.284592 0.165354,
        0.439420 0.299877 0.165354,
        0.478880 0.344264 0.165354,
        0.466535 0.349377 0.165354,
        -0.455935 -0.357510 0.165354,
        -0.424135 -0.326350 0.165354,
        -0.433520 -0.314120 0.165354,
        0.447802 0.368110 0.165354,
        0.411904 0.335735 0.165354,
        0.455935 0.357510 0.165354,
        0.424135 0.326350 0.165354,
        0.433520 0.314120 0.165354,
        0.397661 -0.341635 0.165354,
        0.382377 -0.343647 0.165354,
        -0.382377 -0.343647 0.165354,
      ]
    }
    coordIndex [
      0, 1, 2, -1,
      2, 1, 3, -1,
      2, 3, 4, -1,
      5, 6, 7, -1,
      7, 6, 8, -1,
      7, 8, 9, -1,
      10, 11, 12, -1,
      12, 11, 13, -1,
      12, 13, 14, -1,
      15, 16, 17, -1,
      17, 16, 18, -1,
      17, 18, 19, -1,
      20, 14, 13, -1,
      21, 19, 18, -1,
      22, 23, 24, -1,
      22, 24, 25, -1,
      26, 27, 28, -1,
      28, 27, 29, -1,
      28, 29, 30, -1,
      7, 9, 31, -1,
      24, 32, 33, -1,
      33, 32, 34, -1,
      33, 34, 35, -1,
      35, 34, 36, -1,
      25, 24, 37, -1,
      37, 24, 7, -1,
      37, 7, 38, -1,
      23, 39, 24, -1,
      24, 39, 40, -1,
      24, 40, 41, -1,
      7, 31, 42, -1,
      41, 43, 24, -1,
      24, 43, 44, -1,
      24, 44, 32, -1,
      45, 34, 46, -1,
      46, 34, 47, -1,
      45, 48, 34, -1,
      34, 48, 49, -1,
      34, 49, 36, -1,
      31, 50, 42, -1,
      42, 50, 51, -1,
      42, 51, 52, -1,
      52, 51, 53, -1,
      54, 55, 42, -1,
      42, 55, 56, -1,
      42, 56, 7, -1,
      7, 56, 57, -1,
      7, 57, 58, -1,
      58, 59, 7, -1,
      7, 59, 60, -1,
      7, 60, 38, -1,
      30, 61, 28, -1,
      28, 61, 62, -1,
      28, 62, 63, -1,
      63, 62, 64, -1,
      63, 64, 65, -1,
      64, 66, 65, -1,
      65, 66, 67, -1,
      65, 67, 42, -1,
      42, 67, 68, -1,
      42, 68, 54, -1,
      21, 18, 69, -1,
      2, 4, 70, -1,
      53, 71, 52, -1,
      52, 71, 0, -1,
      52, 0, 26, -1,
      26, 0, 2, -1,
      26, 2, 27, -1,
      27, 2, 70, -1,
      72, 73, 74, -1,
      74, 73, 75, -1,
      74, 75, 69, -1,
      70, 76, 27, -1,
      27, 76, 77, -1,
      27, 77, 78, -1,
      78, 77, 69, -1,
      78, 69, 79, -1,
      79, 69, 75, -1,
      80, 81, 74, -1,
      74, 81, 82, -1,
      83, 84, 85, -1,
      85, 84, 86, -1,
      87, 88, 89, -1,
      86, 90, 85, -1,
      85, 90, 91, -1,
      85, 91, 92, -1,
      93, 94, 95, -1,
      96, 97, 95, -1,
      95, 97, 98, -1,
      95, 98, 93, -1,
      93, 98, 80, -1,
      93, 80, 99, -1,
      99, 80, 74, -1,
      100, 101, 102, -1,
      102, 101, 103, -1,
      100, 104, 101, -1,
      101, 104, 105, -1,
      101, 105, 106, -1,
      89, 94, 87, -1,
      87, 94, 93, -1,
      87, 93, 107, -1,
      107, 93, 5, -1,
      107, 5, 82, -1,
      82, 5, 7, -1,
      82, 7, 74, -1,
      74, 7, 24, -1,
      74, 24, 72, -1,
      11, 108, 13, -1,
      13, 108, 109, -1,
      106, 110, 101, -1,
      101, 110, 111, -1,
      101, 111, 85, -1,
      85, 111, 112, -1,
      85, 112, 83, -1,
      93, 103, 5, -1,
      5, 103, 101, -1,
      5, 101, 113, -1,
      113, 101, 114, -1,
      113, 114, 115, -1,
      11, 116, 108, -1,
      108, 116, 117, -1,
      108, 117, 114, -1,
      114, 117, 118, -1,
      114, 118, 115, -1,
      119, 85, 74, -1,
      74, 85, 92, -1,
      74, 92, 99, -1,
      120, 121, 74, -1,
      74, 121, 122, -1,
      69, 18, 74, -1,
      74, 18, 16, -1,
      74, 16, 120, -1,
      20, 13, 123, -1,
      122, 123, 74, -1,
      74, 123, 13, -1,
      74, 13, 119, -1,
      119, 13, 109, -1,
      119, 109, 124, -1,
      124, 109, 125, -1,
      126, 3, 127, -1,
      127, 3, 128, -1,
      129, 130, 10, -1,
      131, 8, 132, -1,
      15, 17, 133, -1,
      10, 130, 134, -1,
      135, 136, 137, -1,
      137, 136, 15, -1,
      137, 15, 138, -1,
      139, 140, 141, -1,
      129, 10, 142, -1,
      142, 10, 12, -1,
      142, 12, 143, -1,
      143, 12, 144, -1,
      143, 144, 145, -1,
      140, 139, 6, -1,
      6, 139, 146, -1,
      6, 146, 8, -1,
      8, 146, 147, -1,
      8, 147, 132, -1,
      126, 127, 148, -1,
      148, 127, 149, -1,
      148, 149, 150, -1,
      150, 149, 151, -1,
      150, 151, 152, -1,
      152, 151, 153, -1,
      152, 153, 133, -1,
      134, 130, 154, -1,
      154, 130, 155, -1,
      154, 155, 156, -1,
      156, 155, 157, -1,
      156, 157, 141, -1,
      141, 157, 158, -1,
      141, 158, 139, -1,
      128, 3, 159, -1,
      159, 3, 1, -1,
      159, 1, 160, -1,
      160, 1, 161, -1,
      160, 161, 162, -1,
      135, 137, 163, -1,
      163, 137, 164, -1,
      163, 164, 145, -1,
      145, 164, 165, -1,
      145, 165, 143, -1,
      131, 132, 166, -1,
      166, 132, 167, -1,
      166, 167, 168, -1,
      168, 167, 169, -1,
      168, 169, 162, -1,
      162, 169, 170, -1,
      162, 170, 160, -1,
      153, 171, 133, -1,
      133, 171, 172, -1,
      133, 172, 15, -1,
      15, 172, 173, -1,
      15, 173, 138, -1,
    ]
  }
}

Shape {
  appearance Appearance {
    material Material {
      diffuseColor 0.9020 0.7843 0.6863
      specularColor 0.4510 0.3922 0.3412
      ambientIntensity 0.2
      transparency 0.0000
      shininess 0.5
    }
  }
  geometry IndexedFaceSet {
    ccw TRUE
    solid FALSE
    coord DEF co Coordinate {
      point [
        0.441432 -0.284592 0.165354,
        -0.441432 0.284592 0.165354,
        -0.441432 -0.284592 0.165354,
        -0.382377 0.343647 0.165354,
        0.382377 0.343647 0.165354,
        0.441432 0.284592 0.165354,
        0.382377 -0.343647 0.165354,
        -0.382377 -0.343647 0.165354,
        0.441432 0.284592 0.224409,
        0.441432 -0.284592 0.224409,
        0.382377 0.343647 0.224409,
        -0.382377 0.343647 0.224409,
        -0.441432 -0.284592 0.224409,
        -0.441432 0.284592 0.224409,
        0.382377 -0.343647 0.224409,
        -0.382377 -0.343647 0.224409,
      ]
    }
    coordIndex [
      8, 9, 5, -1,
      5, 9, 0, -1,
      4, 3, 10, -1,
      10, 3, 11, -1,
      12, 13, 2, -1,
      2, 13, 1, -1,
      14, 15, 6, -1,
      6, 15, 7, -1,
    ]
  }
}

Shape {
  appearance Appearance {
    material Material {
      diffuseColor 0.5098 0.5098 0.6275
      specularColor 0.2549 0.2549 0.3137
      ambientIntensity 0.2
      transparency 0.0000
      shininess 0.5
    }
  }
  geometry IndexedFaceSet {
    ccw TRUE
    solid FALSE
    coord DEF co Coordinate {
      point [
        0.441432 0.284592 0.224409,
        0.441432 -0.284592 0.224409,
        0.382377 0.343647 0.224409,
        -0.382377 0.343647 0.224409,
        -0.441432 -0.284592 0.224409,
        -0.441432 0.284592 0.224409,
        0.382377 -0.343647 0.224409,
        -0.382377 -0.343647 0.224409,
        0.439420 -0.299877 0.224409,
        0.433520 -0.314120 0.224409,
        0.433520 0.314120 0.224409,
        0.439420 0.299877 0.224409,
        -0.439420 0.299877 0.224409,
        0.424135 -0.326350 0.224409,
        0.397661 -0.341635 0.224409,
        0.411904 -0.335735 0.224409,
        0.424135 0.326350 0.224409,
        0.411904 0.335735 0.224409,
        0.397661 0.341635 0.224409,
        -0.397661 0.341635 0.224409,
        -0.411904 0.335735 0.224409,
        -0.439420 -0.299877 0.224409,
        -0.433520 -0.314120 0.224409,
        -0.397661 -0.341635 0.224409,
        -0.424135 -0.326350 0.224409,
        -0.411904 -0.335735 0.224409,
        -0.424135 0.326350 0.224409,
        -0.433520 0.314120 0.224409,
      ]
    }
    coordIndex [
      4, 1, 5, -1,
      5, 1, 0, -1,
      4, 7, 1, -1,
      1, 7, 6, -1,
      1, 6, 8, -1,
      8, 6, 9, -1,
      10, 2, 11, -1,
      11, 2, 0, -1,
      0, 2, 5, -1,
      5, 2, 3, -1,
      5, 3, 12, -1,
      9, 6, 13, -1,
      13, 6, 14, -1,
      13, 14, 15, -1,
      10, 16, 2, -1,
      2, 16, 17, -1,
      2, 17, 18, -1,
      3, 19, 20, -1,
      4, 21, 7, -1,
      7, 21, 22, -1,
      7, 22, 23, -1,
      23, 22, 24, -1,
      23, 24, 25, -1,
      20, 26, 3, -1,
      3, 26, 27, -1,
      3, 27, 12, -1,
    ]
  }
}

Shape {
  appearance Appearance {
    material Material {
      diffuseColor 0.9020 0.7843 0.6863
      specularColor 0.4510 0.3922 0.3412
      ambientIntensity 0.2
      transparency 0.0000
      shininess 0.5
    }
  }
  geometry IndexedFaceSet {
    ccw TRUE
    solid FALSE
    coord DEF co Coordinate {
      point [
        0.439420 -0.299877 0.165354,
        0.441432 -0.284592 0.165354,
        -0.441432 0.284592 0.165354,
        -0.439420 0.299877 0.165354,
        0.397661 0.341635 0.165354,
        -0.411904 -0.335735 0.165354,
        -0.397661 -0.341635 0.165354,
        -0.397661 0.341635 0.165354,
        -0.441432 -0.284592 0.165354,
        -0.439420 -0.299877 0.165354,
        -0.382377 0.343647 0.165354,
        0.382377 0.343647 0.165354,
        0.433520 -0.314120 0.165354,
        0.424135 -0.326350 0.165354,
        0.411904 -0.335735 0.165354,
        -0.433520 0.314120 0.165354,
        -0.424135 0.326350 0.165354,
        -0.411904 0.335735 0.165354,
        0.441432 0.284592 0.165354,
        0.439420 0.299877 0.165354,
        -0.424135 -0.326350 0.165354,
        -0.433520 -0.314120 0.165354,
        0.411904 0.335735 0.165354,
        0.424135 0.326350 0.165354,
        0.433520 0.314120 0.165354,
        0.397661 -0.341635 0.165354,
        0.382377 -0.343647 0.165354,
        -0.382377 -0.343647 0.165354,
        0.441432 0.284592 0.224409,
        0.441432 -0.284592 0.224409,
        0.382377 0.343647 0.224409,
        -0.382377 0.343647 0.224409,
        -0.441432 -0.284592 0.224409,
        -0.441432 0.284592 0.224409,
        0.382377 -0.343647 0.224409,
        -0.382377 -0.343647 0.224409,
        0.439420 -0.299877 0.224409,
        0.433520 -0.314120 0.224409,
        0.433520 0.314120 0.224409,
        0.439420 0.299877 0.224409,
        -0.439420 0.299877 0.224409,
        0.424135 -0.326350 0.224409,
        0.397661 -0.341635 0.224409,
        0.411904 -0.335735 0.224409,
        0.424135 0.326350 0.224409,
        0.411904 0.335735 0.224409,
        0.397661 0.341635 0.224409,
        -0.397661 0.341635 0.224409,
        -0.411904 0.335735 0.224409,
        -0.439420 -0.299877 0.224409,
        -0.433520 -0.314120 0.224409,
        -0.397661 -0.341635 0.224409,
        -0.424135 -0.326350 0.224409,
        -0.411904 -0.335735 0.224409,
        -0.424135 0.326350 0.224409,
        -0.433520 0.314120 0.224409,
      ]
    }
    coordIndex [
      28, 18, 19, -1,
      28, 19, 39, -1,
      39, 19, 24, -1,
      39, 24, 38, -1,
      38, 24, 23, -1,
      38, 23, 44, -1,
      44, 23, 22, -1,
      44, 22, 45, -1,
      45, 22, 4, -1,
      45, 4, 46, -1,
      46, 4, 11, -1,
      46, 11, 30, -1,
      34, 26, 25, -1,
      34, 25, 42, -1,
      42, 25, 14, -1,
      42, 14, 43, -1,
      43, 14, 13, -1,
      43, 13, 41, -1,
      41, 13, 12, -1,
      41, 12, 37, -1,
      37, 12, 0, -1,
      37, 0, 36, -1,
      36, 0, 1, -1,
      36, 1, 29, -1,
      32, 8, 9, -1,
      32, 9, 49, -1,
      49, 9, 21, -1,
      49, 21, 50, -1,
      50, 21, 20, -1,
      50, 20, 52, -1,
      52, 20, 5, -1,
      52, 5, 53, -1,
      53, 5, 6, -1,
      53, 6, 51, -1,
      51, 6, 27, -1,
      51, 27, 35, -1,
      31, 10, 7, -1,
      31, 7, 47, -1,
      47, 7, 17, -1,
      47, 17, 48, -1,
      48, 17, 16, -1,
      48, 16, 54, -1,
      54, 16, 15, -1,
      54, 15, 55, -1,
      55, 15, 3, -1,
      55, 3, 40, -1,
      40, 3, 2, -1,
      40, 2, 33, -1,
    ]
  }
}

Shape {
  appearance Appearance {
    material Material {
      diffuseColor 1.0000 1.0000 1.0000
      specularColor 0.8784 0.8784 0.8784
      ambientIntensity 0.2
      transparency 0.0000
      shininess 0.5
    }
  }
  geometry IndexedFaceSet {
    ccw TRUE
    solid FALSE
    coord DEF co Coordinate {
      point [
        0.123117 0.046440 0.007874,
        0.136685 0.044916 0.007874,
        0.090847 -0.055646 0.007874,
        0.106368 0.044264 0.007874,
        0.275694 -0.077912 0.007874,
        0.137902 -0.078752 0.007874,
        0.205116 -0.077912 0.007874,
        0.144069 -0.078185 0.007874,
        0.158080 -0.073709 0.007874,
        0.174869 -0.010485 0.007874,
        0.093317 -0.057014 0.007874,
        0.173613 -0.024686 0.007874,
        0.107924 -0.062438 0.007874,
        0.126215 -0.064469 0.007874,
        0.090847 0.037618 0.007874,
        0.090847 0.056102 0.007874,
        0.146972 0.041207 0.007874,
        0.156513 0.034833 0.007874,
        0.164838 0.025655 0.007874,
        0.257209 0.059883 0.007874,
        0.170526 0.015020 0.007874,
        0.174206 0.000282 0.007874,
        0.156898 -0.054194 0.007874,
        0.164207 -0.046578 0.007874,
        0.169862 -0.036957 0.007874,
        0.148359 -0.059707 0.007874,
        0.138275 -0.063207 0.007874,
        0.275694 0.059883 0.007874,
        0.187357 0.020734 0.007874,
        0.179835 0.034098 0.007874,
        0.168581 0.046056 0.007874,
        0.154279 0.055165 0.007874,
        0.138905 0.060102 0.007874,
        0.123274 0.061564 0.007874,
        0.106778 0.060426 0.007874,
        0.169257 -0.066902 0.007874,
        0.179826 -0.056202 0.007874,
        0.205116 -0.062788 0.007874,
        0.187409 -0.043265 0.007874,
        0.257209 -0.062788 0.007874,
        0.191799 -0.028778 0.007874,
        0.193353 -0.011614 0.007874,
        0.191987 0.004834 0.007874,
        0.090847 -0.070770 0.007874,
        0.105535 -0.076801 0.007874,
        0.117703 -0.078752 0.007874,
        0.128762 -0.079592 0.007874,
        0.121522 -0.079364 0.007874,
        -0.009979 -0.077912 0.007874,
        0.063960 -0.077912 0.007874,
        0.063960 0.059883 0.007874,
        -0.141759 -0.038272 0.007874,
        -0.134295 -0.050821 0.007874,
        -0.157857 -0.077912 0.007874,
        -0.123294 -0.062041 0.007874,
        -0.006618 0.044759 0.007874,
        0.045475 0.044759 0.007874,
        0.045475 -0.000612 0.007874,
        -0.109520 -0.070685 0.007874,
        -0.093699 -0.075968 0.007874,
        -0.074334 -0.077912 0.007874,
        -0.036866 0.059883 0.007874,
        -0.003257 -0.000612 0.007874,
        -0.003257 -0.015736 0.007874,
        0.045475 -0.015736 0.007874,
        0.045475 -0.062788 0.007874,
        -0.009979 -0.062788 0.007874,
        -0.036866 -0.077912 0.007874,
        -0.108370 0.053666 0.007874,
        -0.209950 0.059883 0.007874,
        -0.092510 0.058416 0.007874,
        -0.075752 0.059883 0.007874,
        -0.123695 0.044591 0.007874,
        -0.135137 0.033187 0.007874,
        -0.142094 0.021586 0.007874,
        -0.006618 0.059883 0.007874,
        -0.282209 -0.077912 0.007874,
        -0.262043 -0.077912 0.007874,
        -0.146335 0.008079 0.007874,
        -0.147774 -0.007281 0.007874,
        -0.146348 -0.023263 0.007874,
        -0.228435 0.059883 0.007874,
        -0.178022 -0.077912 0.007874,
        -0.191176 -0.039262 0.007874,
        -0.248101 -0.039262 0.007874,
        -0.228435 0.059883 0.011811,
        -0.282209 -0.077912 0.011811,
        -0.262043 -0.077912 0.011811,
        -0.248101 -0.039262 0.011811,
        -0.191176 -0.039262 0.011811,
        -0.178022 -0.077912 0.011811,
        -0.157857 -0.077912 0.011811,
        -0.209950 0.059883 0.011811,
        -0.195824 -0.024138 0.011811,
        -0.241904 -0.024138 0.011811,
        -0.216383 0.033417 0.011811,
        -0.217709 0.038196 0.011811,
        -0.218589 0.043079 0.011811,
        -0.219035 0.043079 0.011811,
        -0.219934 0.038210 0.011811,
        -0.221162 0.033417 0.011811,
        -0.195824 -0.024138 0.007874,
        -0.241904 -0.024138 0.007874,
        -0.216383 0.033417 0.007874,
        -0.217709 0.038196 0.007874,
        -0.218589 0.043079 0.007874,
        -0.219035 0.043079 0.007874,
        -0.219934 0.038210 0.007874,
        -0.221162 0.033417 0.007874,
        -0.074334 -0.077912 0.011811,
        -0.036866 -0.077912 0.011811,
        -0.036866 0.059883 0.011811,
        -0.075752 0.059883 0.011811,
        -0.147774 -0.007281 0.011811,
        -0.146335 0.008079 0.011811,
        -0.142094 0.021586 0.011811,
        -0.135137 0.033187 0.011811,
        -0.123695 0.044591 0.011811,
        -0.108370 0.053666 0.011811,
        -0.092510 0.058416 0.011811,
        -0.093699 -0.075968 0.011811,
        -0.109520 -0.070685 0.011811,
        -0.123294 -0.062041 0.011811,
        -0.134295 -0.050821 0.011811,
        -0.141759 -0.038272 0.011811,
        -0.146348 -0.023263 0.011811,
        -0.128189 0.005656 0.011811,
        -0.129289 -0.007675 0.011811,
        -0.129287 -0.007801 0.011811,
        -0.127518 -0.024562 0.011811,
        -0.123865 -0.035356 0.011811,
        -0.118009 -0.044804 0.011811,
        -0.110231 -0.052396 0.011811,
        -0.100778 -0.057935 0.011811,
        -0.088804 -0.061559 0.011811,
        -0.074912 -0.062788 0.011811,
        -0.055350 -0.062788 0.011811,
        -0.055350 0.044759 0.011811,
        -0.075673 0.044759 0.011811,
        -0.092030 0.043015 0.011811,
        -0.103396 0.039027 0.011811,
        -0.113453 0.032517 0.011811,
        -0.120140 0.025402 0.011811,
        -0.124920 0.016895 0.011811,
        -0.075673 0.044759 0.007874,
        -0.055350 0.044759 0.007874,
        -0.092030 0.043015 0.007874,
        -0.103396 0.039027 0.007874,
        -0.113453 0.032517 0.007874,
        -0.120140 0.025402 0.007874,
        -0.124920 0.016895 0.007874,
        -0.128189 0.005656 0.007874,
        -0.129289 -0.007675 0.007874,
        -0.129287 -0.007801 0.007874,
        -0.127518 -0.024562 0.007874,
        -0.123865 -0.035356 0.007874,
        -0.118009 -0.044804 0.007874,
        -0.110231 -0.052396 0.007874,
        -0.100778 -0.057935 0.007874,
        -0.088804 -0.061559 0.007874,
        -0.074912 -0.062788 0.007874,
        -0.055350 -0.062788 0.007874,
        -0.009979 -0.062788 0.011811,
        -0.009979 -0.077912 0.011811,
        0.063960 -0.077912 0.011811,
        0.063960 0.059883 0.011811,
        -0.006618 0.059883 0.011811,
        -0.006618 0.044759 0.011811,
        0.045475 0.044759 0.011811,
        0.045475 -0.000612 0.011811,
        -0.003257 -0.000612 0.011811,
        -0.003257 -0.015736 0.011811,
        0.045475 -0.015736 0.011811,
        0.045475 -0.062788 0.011811,
        0.090847 -0.055646 0.011811,
        0.090847 -0.070770 0.011811,
        0.105535 -0.076801 0.011811,
        0.128762 -0.079592 0.011811,
        0.121522 -0.079364 0.011811,
        0.144069 -0.078185 0.011811,
        0.158080 -0.073709 0.011811,
        0.169257 -0.066902 0.011811,
        0.179826 -0.056202 0.011811,
        0.187409 -0.043265 0.011811,
        0.191799 -0.028778 0.011811,
        0.193353 -0.011614 0.011811,
        0.123274 0.061564 0.011811,
        0.138905 0.060102 0.011811,
        0.154279 0.055165 0.011811,
        0.168581 0.046056 0.011811,
        0.179835 0.034098 0.011811,
        0.187357 0.020734 0.011811,
        0.191987 0.004834 0.011811,
        0.090847 0.056102 0.011811,
        0.106778 0.060426 0.011811,
        0.090847 0.037618 0.011811,
        0.123117 0.046440 0.011811,
        0.106368 0.044264 0.011811,
        0.174869 -0.010485 0.011811,
        0.174206 0.000282 0.011811,
        0.170526 0.015020 0.011811,
        0.164838 0.025655 0.011811,
        0.156513 0.034833 0.011811,
        0.146972 0.041207 0.011811,
        0.136685 0.044916 0.011811,
        0.126215 -0.064469 0.011811,
        0.138275 -0.063207 0.011811,
        0.148359 -0.059707 0.011811,
        0.156898 -0.054194 0.011811,
        0.164207 -0.046578 0.011811,
        0.169862 -0.036957 0.011811,
        0.173613 -0.024686 0.011811,
        0.093317 -0.057014 0.011811,
        0.107924 -0.062438 0.011811,
        0.205116 -0.062788 0.011811,
        0.205116 -0.077912 0.011811,
        0.275694 -0.077912 0.011811,
        0.275694 0.059883 0.011811,
        0.257209 0.059883 0.011811,
        0.257209 -0.062788 0.011811,
      ]
    }
    coordIndex [
      85, 86, 81, -1,
      81, 86, 76, -1,
      86, 87, 76, -1,
      76, 87, 77, -1,
      87, 88, 77, -1,
      77, 88, 84, -1,
      88, 89, 84, -1,
      84, 89, 83, -1,
      89, 90, 83, -1,
      83, 90, 82, -1,
      90, 91, 82, -1,
      82, 91, 53, -1,
      91, 92, 53, -1,
      53, 92, 69, -1,
      92, 85, 69, -1,
      69, 85, 81, -1,
      93, 89, 94, -1,
      94, 89, 88, -1,
      95, 92, 93, -1,
      93, 92, 91, -1,
      93, 91, 89, -1,
      89, 91, 90, -1,
      95, 96, 92, -1,
      92, 96, 97, -1,
      92, 97, 85, -1,
      85, 97, 98, -1,
      85, 98, 99, -1,
      99, 100, 85, -1,
      85, 100, 94, -1,
      85, 94, 86, -1,
      86, 94, 88, -1,
      86, 88, 87, -1,
      93, 94, 101, -1,
      101, 94, 102, -1,
      95, 93, 103, -1,
      103, 93, 101, -1,
      95, 103, 104, -1,
      95, 104, 96, -1,
      96, 104, 105, -1,
      96, 105, 97, -1,
      98, 97, 106, -1,
      106, 97, 105, -1,
      98, 106, 107, -1,
      98, 107, 99, -1,
      99, 107, 108, -1,
      99, 108, 100, -1,
      94, 100, 102, -1,
      102, 100, 108, -1,
      109, 110, 60, -1,
      60, 110, 67, -1,
      110, 111, 67, -1,
      67, 111, 61, -1,
      111, 112, 61, -1,
      61, 112, 71, -1,
      113, 79, 78, -1,
      113, 78, 114, -1,
      114, 78, 74, -1,
      114, 74, 115, -1,
      115, 74, 73, -1,
      115, 73, 116, -1,
      116, 73, 72, -1,
      116, 72, 117, -1,
      117, 72, 68, -1,
      117, 68, 118, -1,
      118, 68, 70, -1,
      118, 70, 119, -1,
      119, 70, 71, -1,
      119, 71, 112, -1,
      109, 60, 59, -1,
      109, 59, 120, -1,
      120, 59, 58, -1,
      120, 58, 121, -1,
      121, 58, 54, -1,
      121, 54, 122, -1,
      122, 54, 52, -1,
      122, 52, 123, -1,
      123, 52, 51, -1,
      123, 51, 124, -1,
      124, 51, 80, -1,
      124, 80, 125, -1,
      125, 80, 79, -1,
      125, 79, 113, -1,
      126, 127, 113, -1,
      113, 127, 128, -1,
      113, 128, 125, -1,
      125, 128, 129, -1,
      125, 129, 124, -1,
      124, 129, 130, -1,
      124, 130, 123, -1,
      123, 130, 131, -1,
      123, 131, 122, -1,
      122, 131, 132, -1,
      122, 132, 121, -1,
      121, 132, 133, -1,
      121, 133, 120, -1,
      120, 133, 134, -1,
      120, 134, 109, -1,
      109, 134, 135, -1,
      109, 135, 110, -1,
      110, 135, 136, -1,
      110, 136, 111, -1,
      111, 136, 137, -1,
      111, 137, 112, -1,
      112, 137, 138, -1,
      112, 138, 119, -1,
      119, 138, 139, -1,
      119, 139, 118, -1,
      118, 139, 140, -1,
      118, 140, 117, -1,
      117, 140, 141, -1,
      117, 141, 116, -1,
      116, 141, 142, -1,
      116, 142, 115, -1,
      115, 142, 143, -1,
      115, 143, 114, -1,
      114, 143, 126, -1,
      114, 126, 113, -1,
      138, 137, 144, -1,
      144, 137, 145, -1,
      138, 144, 146, -1,
      138, 146, 139, -1,
      139, 146, 147, -1,
      139, 147, 140, -1,
      140, 147, 148, -1,
      140, 148, 141, -1,
      141, 148, 149, -1,
      141, 149, 142, -1,
      142, 149, 150, -1,
      142, 150, 143, -1,
      143, 150, 151, -1,
      143, 151, 126, -1,
      126, 151, 152, -1,
      126, 152, 127, -1,
      127, 152, 153, -1,
      127, 153, 128, -1,
      128, 153, 154, -1,
      128, 154, 129, -1,
      129, 154, 155, -1,
      129, 155, 130, -1,
      130, 155, 156, -1,
      130, 156, 131, -1,
      131, 156, 157, -1,
      131, 157, 132, -1,
      132, 157, 158, -1,
      132, 158, 133, -1,
      133, 158, 159, -1,
      133, 159, 134, -1,
      134, 159, 160, -1,
      134, 160, 135, -1,
      136, 135, 161, -1,
      161, 135, 160, -1,
      137, 136, 145, -1,
      145, 136, 161, -1,
      162, 163, 66, -1,
      66, 163, 48, -1,
      163, 164, 48, -1,
      48, 164, 49, -1,
      164, 165, 49, -1,
      49, 165, 50, -1,
      165, 166, 50, -1,
      50, 166, 75, -1,
      166, 167, 75, -1,
      75, 167, 55, -1,
      167, 168, 55, -1,
      55, 168, 56, -1,
      168, 169, 56, -1,
      56, 169, 57, -1,
      169, 170, 57, -1,
      57, 170, 62, -1,
      170, 171, 62, -1,
      62, 171, 63, -1,
      171, 172, 63, -1,
      63, 172, 64, -1,
      172, 173, 64, -1,
      64, 173, 65, -1,
      173, 162, 65, -1,
      65, 162, 66, -1,
      164, 163, 162, -1,
      162, 173, 164, -1,
      164, 173, 172, -1,
      164, 172, 165, -1,
      167, 166, 168, -1,
      168, 166, 165, -1,
      168, 165, 169, -1,
      169, 165, 172, -1,
      169, 172, 170, -1,
      170, 172, 171, -1,
      174, 175, 2, -1,
      2, 175, 43, -1,
      43, 175, 176, -1,
      177, 46, 47, -1,
      177, 47, 178, -1,
      178, 47, 45, -1,
      178, 45, 176, -1,
      176, 45, 44, -1,
      176, 44, 43, -1,
      46, 177, 5, -1,
      5, 177, 179, -1,
      5, 179, 7, -1,
      7, 179, 180, -1,
      7, 180, 8, -1,
      8, 180, 181, -1,
      8, 181, 35, -1,
      35, 181, 182, -1,
      35, 182, 36, -1,
      36, 182, 183, -1,
      36, 183, 38, -1,
      38, 183, 184, -1,
      38, 184, 40, -1,
      40, 184, 185, -1,
      40, 185, 41, -1,
      186, 33, 32, -1,
      186, 32, 187, -1,
      187, 32, 31, -1,
      187, 31, 188, -1,
      188, 31, 30, -1,
      188, 30, 189, -1,
      189, 30, 29, -1,
      189, 29, 190, -1,
      190, 29, 28, -1,
      190, 28, 191, -1,
      191, 28, 42, -1,
      191, 42, 192, -1,
      192, 42, 41, -1,
      192, 41, 185, -1,
      193, 15, 34, -1,
      193, 34, 194, -1,
      194, 34, 33, -1,
      194, 33, 186, -1,
      193, 195, 15, -1,
      15, 195, 14, -1,
      196, 0, 3, -1,
      196, 3, 197, -1,
      197, 3, 14, -1,
      197, 14, 195, -1,
      198, 9, 21, -1,
      198, 21, 199, -1,
      199, 21, 20, -1,
      199, 20, 200, -1,
      200, 20, 18, -1,
      200, 18, 201, -1,
      201, 18, 17, -1,
      201, 17, 202, -1,
      202, 17, 16, -1,
      202, 16, 203, -1,
      203, 16, 1, -1,
      203, 1, 204, -1,
      204, 1, 0, -1,
      204, 0, 196, -1,
      205, 13, 26, -1,
      205, 26, 206, -1,
      206, 26, 25, -1,
      206, 25, 207, -1,
      207, 25, 22, -1,
      207, 22, 208, -1,
      208, 22, 23, -1,
      208, 23, 209, -1,
      209, 23, 24, -1,
      209, 24, 210, -1,
      210, 24, 11, -1,
      210, 11, 211, -1,
      211, 11, 9, -1,
      211, 9, 198, -1,
      174, 2, 10, -1,
      174, 10, 212, -1,
      212, 10, 12, -1,
      212, 12, 213, -1,
      213, 12, 13, -1,
      213, 13, 205, -1,
      205, 178, 213, -1,
      213, 178, 176, -1,
      213, 176, 212, -1,
      212, 176, 175, -1,
      212, 175, 174, -1,
      195, 193, 197, -1,
      197, 193, 194, -1,
      197, 194, 196, -1,
      196, 194, 186, -1,
      196, 186, 204, -1,
      204, 186, 187, -1,
      204, 187, 203, -1,
      203, 187, 188, -1,
      203, 188, 202, -1,
      202, 188, 189, -1,
      202, 189, 201, -1,
      201, 189, 190, -1,
      201, 190, 200, -1,
      200, 190, 191, -1,
      200, 191, 199, -1,
      199, 191, 192, -1,
      199, 192, 198, -1,
      198, 192, 185, -1,
      198, 185, 211, -1,
      211, 185, 184, -1,
      211, 184, 210, -1,
      210, 184, 183, -1,
      210, 183, 209, -1,
      209, 183, 182, -1,
      209, 182, 208, -1,
      208, 182, 181, -1,
      208, 181, 207, -1,
      207, 181, 180, -1,
      207, 180, 206, -1,
      206, 180, 179, -1,
      206, 179, 205, -1,
      205, 179, 177, -1,
      205, 177, 178, -1,
      214, 215, 37, -1,
      37, 215, 6, -1,
      215, 216, 6, -1,
      6, 216, 4, -1,
      216, 217, 4, -1,
      4, 217, 27, -1,
      217, 218, 27, -1,
      27, 218, 19, -1,
      218, 219, 19, -1,
      19, 219, 39, -1,
      219, 214, 39, -1,
      39, 214, 37, -1,
      218, 217, 219, -1,
      219, 217, 216, -1,
      219, 216, 214, -1,
      214, 216, 215, -1,
    ]
  }
}

Shape {
  appearance Appearance {
    material Material {
      diffuseColor 0.5098 0.5098 0.6275
      specularColor 0.2549 0.2549 0.3137
      ambientIntensity 0.2
      transparency 0.0000
      shininess 0.5
    }
  }
  geometry IndexedFaceSet {
    ccw TRUE
    solid FALSE
    coord DEF co Coordinate {
      point [
        -0.195824 -0.024138 0.007874,
        -0.241904 -0.024138 0.007874,
        -0.216383 0.033417 0.007874,
        -0.217709 0.038196 0.007874,
        -0.218589 0.043079 0.007874,
        -0.219035 0.043079 0.007874,
        -0.219934 0.038210 0.007874,
        -0.221162 0.033417 0.007874,
        -0.075673 0.044759 0.007874,
        -0.055350 0.044759 0.007874,
        -0.092030 0.043015 0.007874,
        -0.103396 0.039027 0.007874,
        -0.113453 0.032517 0.007874,
        -0.120140 0.025402 0.007874,
        -0.124920 0.016895 0.007874,
        -0.128189 0.005656 0.007874,
        -0.129289 -0.007675 0.007874,
        -0.129287 -0.007801 0.007874,
        -0.127518 -0.024562 0.007874,
        -0.123865 -0.035356 0.007874,
        -0.118009 -0.044804 0.007874,
        -0.110231 -0.052396 0.007874,
        -0.100778 -0.057935 0.007874,
        -0.088804 -0.061559 0.007874,
        -0.074912 -0.062788 0.007874,
        -0.055350 -0.062788 0.007874,
      ]
    }
    coordIndex [
      0, 1, 2, -1,
      2, 1, 7, -1,
      2, 7, 3, -1,
      3, 7, 6, -1,
      3, 6, 4, -1,
      4, 6, 5, -1,
      10, 8, 14, -1,
      19, 18, 9, -1,
      18, 17, 9, -1,
      9, 17, 16, -1,
      9, 16, 8, -1,
      8, 16, 15, -1,
      8, 15, 14, -1,
      25, 24, 9, -1,
      9, 24, 23, -1,
      9, 23, 22, -1,
      22, 21, 9, -1,
      9, 21, 20, -1,
      9, 20, 19, -1,
      13, 12, 14, -1,
      14, 12, 11, -1,
      14, 11, 10, -1,
    ]
  }
}

Shape {
  appearance Appearance {
    material Material {
      diffuseColor 0.9020 0.7843 0.6863
      specularColor 0.4510 0.3922 0.3412
      ambientIntensity 0.2
      transparency 0.0000
      shininess 0.5
    }
  }
  geometry IndexedFaceSet {
    ccw TRUE
    solid FALSE
    coord DEF co Coordinate {
      point [
        0.492126 0.342520 0.007874,
        0.492126 0.342520 0.165354,
        0.492126 -0.342520 0.165354,
        0.492126 -0.342520 0.007874,
        -0.440945 0.393701 0.007874,
        -0.440945 0.393701 0.165354,
        0.440945 0.393701 0.165354,
        0.440945 0.393701 0.007874,
        -0.492126 0.342520 0.165354,
        -0.492126 0.342520 0.007874,
        -0.492126 -0.342520 0.165354,
        -0.492126 -0.342520 0.007874,
        -0.440945 -0.393701 0.165354,
        -0.440945 -0.393701 0.007874,
        0.440945 -0.393701 0.165354,
        0.440945 -0.393701 0.007874,
        -0.478880 -0.344264 0.007874,
        0.442689 -0.380454 0.007874,
        0.442689 0.380454 0.007874,
        0.447802 0.368110 0.007874,
        0.455935 0.357510 0.007874,
        0.466535 0.349377 0.007874,
        0.447802 -0.368110 0.007874,
        0.478880 -0.344264 0.007874,
        0.478880 0.344264 0.007874,
        0.466535 -0.349377 0.007874,
        0.455935 -0.357510 0.007874,
        -0.442689 0.380454 0.007874,
        -0.447802 0.368110 0.007874,
        -0.478880 0.344264 0.007874,
        -0.466535 0.349377 0.007874,
        -0.455935 0.357510 0.007874,
        -0.442689 -0.380454 0.007874,
        -0.447802 -0.368110 0.007874,
        -0.455935 -0.357510 0.007874,
        -0.466535 -0.349377 0.007874,
        0.478880 -0.344264 0.165354,
        0.442689 0.380454 0.165354,
        0.442689 -0.380454 0.165354,
        -0.478880 0.344264 0.165354,
        -0.447802 -0.368110 0.165354,
        -0.442689 -0.380454 0.165354,
        -0.442689 0.380454 0.165354,
        -0.447802 0.368110 0.165354,
        -0.478880 -0.344264 0.165354,
        -0.466535 -0.349377 0.165354,
        0.466535 -0.349377 0.165354,
        0.455935 -0.357510 0.165354,
        0.447802 -0.368110 0.165354,
        -0.466535 0.349377 0.165354,
        -0.455935 0.357510 0.165354,
        0.478880 0.344264 0.165354,
        0.466535 0.349377 0.165354,
        -0.455935 -0.357510 0.165354,
        0.447802 0.368110 0.165354,
        0.455935 0.357510 0.165354,
      ]
    }
    coordIndex [
      14, 15, 38, -1,
      38, 15, 17, -1,
      38, 17, 48, -1,
      48, 17, 22, -1,
      48, 22, 47, -1,
      47, 22, 26, -1,
      47, 26, 46, -1,
      46, 26, 25, -1,
      46, 25, 36, -1,
      36, 25, 23, -1,
      36, 23, 2, -1,
      2, 23, 3, -1,
      10, 11, 44, -1,
      44, 11, 16, -1,
      44, 16, 45, -1,
      45, 16, 35, -1,
      45, 35, 53, -1,
      53, 35, 34, -1,
      53, 34, 40, -1,
      40, 34, 33, -1,
      40, 33, 41, -1,
      41, 33, 32, -1,
      41, 32, 12, -1,
      12, 32, 13, -1,
      5, 4, 42, -1,
      42, 4, 27, -1,
      42, 27, 43, -1,
      43, 27, 28, -1,
      43, 28, 50, -1,
      50, 28, 31, -1,
      50, 31, 49, -1,
      49, 31, 30, -1,
      49, 30, 39, -1,
      39, 30, 29, -1,
      39, 29, 8, -1,
      8, 29, 9, -1,
      1, 0, 51, -1,
      51, 0, 24, -1,
      51, 24, 52, -1,
      52, 24, 21, -1,
      52, 21, 55, -1,
      55, 21, 20, -1,
      55, 20, 54, -1,
      54, 20, 19, -1,
      54, 19, 37, -1,
      37, 19, 18, -1,
      37, 18, 6, -1,
      6, 18, 7, -1,
    ]
  }
}
