#VRML V2.0 utf8

Shape {
  appearance Appearance {
    material Material {
      diffuseColor 0.8314 0.6706 0.1294
      specularColor 0.6667 0.5373 0.1020
      ambientIntensity 0.2
      transparency 0.0000
      shininess 0.5
    }
  }
  geometry IndexedFaceSet {
    ccw TRUE
    solid FALSE
    coord DEF co Coordinate {
      point [
        -0.161417 0.137795 0.122047,
        -0.161417 -0.137795 0.122047,
        -0.161417 0.137795 -0.003937,
        -0.161417 -0.137795 -0.003937,
        -0.318898 0.137795 0.122047,
        -0.318898 0.137795 -0.003937,
        -0.318898 0.066929 0.122047,
        -0.318898 0.066929 -0.003937,
        -0.308428 0.066105 0.122047,
        -0.308428 0.066105 -0.003937,
        -0.298215 0.063654 0.122047,
        -0.298215 0.063654 -0.003937,
        -0.288513 0.059634 0.122047,
        -0.288513 0.059634 -0.003937,
        -0.279558 0.054147 0.122047,
        -0.279558 0.054147 -0.003937,
        -0.271572 0.047326 0.122047,
        -0.271572 0.047326 -0.003937,
        -0.264751 0.039340 0.122047,
        -0.264751 0.039340 -0.003937,
        -0.259263 0.030385 0.122047,
        -0.259263 0.030385 -0.003937,
        -0.255244 0.020682 0.122047,
        -0.255244 0.020682 -0.003937,
        -0.252793 0.010470 0.122047,
        -0.252793 0.010470 -0.003937,
        -0.251969 -0.000000 0.122047,
        -0.251969 -0.000000 -0.003937,
        -0.252793 -0.010470 0.122047,
        -0.252793 -0.010470 -0.003937,
        -0.255244 -0.020682 0.122047,
        -0.255244 -0.020682 -0.003937,
        -0.259263 -0.030385 0.122047,
        -0.259263 -0.030385 -0.003937,
        -0.264751 -0.039340 0.122047,
        -0.264751 -0.039340 -0.003937,
        -0.271572 -0.047326 0.122047,
        -0.271572 -0.047326 -0.003937,
        -0.279558 -0.054147 0.122047,
        -0.279558 -0.054147 -0.003937,
        -0.288513 -0.059634 0.122047,
        -0.288513 -0.059634 -0.003937,
        -0.298215 -0.063654 0.122047,
        -0.298215 -0.063654 -0.003937,
        -0.308428 -0.066105 0.122047,
        -0.308428 -0.066105 -0.003937,
        -0.318898 -0.066929 0.122047,
        -0.318898 -0.066929 -0.003937,
        -0.318898 -0.137795 0.122047,
        -0.318898 -0.137795 -0.003937,
        0.161417 -0.137795 0.122047,
        0.161417 0.137795 0.122047,
        0.161417 -0.137795 -0.003937,
        0.161417 0.137795 -0.003937,
        0.318898 0.137795 0.122047,
        0.318898 0.137795 -0.003937,
        0.318898 0.066929 0.122047,
        0.318898 0.066929 -0.003937,
        0.318898 -0.066929 0.122047,
        0.318898 -0.066929 -0.003937,
        0.308428 -0.066105 0.122047,
        0.308428 -0.066105 -0.003937,
        0.298215 -0.063654 0.122047,
        0.298215 -0.063654 -0.003937,
        0.288513 -0.059634 0.122047,
        0.288513 -0.059634 -0.003937,
        0.279558 -0.054147 0.122047,
        0.279558 -0.054147 -0.003937,
        0.271572 -0.047326 0.122047,
        0.271572 -0.047326 -0.003937,
        0.264751 -0.039340 0.122047,
        0.264751 -0.039340 -0.003937,
        0.259263 -0.030385 0.122047,
        0.259263 -0.030385 -0.003937,
        0.255244 -0.020682 0.122047,
        0.255244 -0.020682 -0.003937,
        0.252793 -0.010470 0.122047,
        0.252793 -0.010470 -0.003937,
        0.251969 -0.000000 0.122047,
        0.251969 -0.000000 -0.003937,
        0.252793 0.010470 0.122047,
        0.252793 0.010470 -0.003937,
        0.255244 0.020682 0.122047,
        0.255244 0.020682 -0.003937,
        0.259263 0.030385 0.122047,
        0.259263 0.030385 -0.003937,
        0.264751 0.039340 0.122047,
        0.264751 0.039340 -0.003937,
        0.271572 0.047326 0.122047,
        0.271572 0.047326 -0.003937,
        0.279558 0.054147 0.122047,
        0.279558 0.054147 -0.003937,
        0.288513 0.059634 0.122047,
        0.288513 0.059634 -0.003937,
        0.298215 0.063654 0.122047,
        0.298215 0.063654 -0.003937,
        0.308428 0.066105 0.122047,
        0.308428 0.066105 -0.003937,
        0.318898 -0.137795 0.122047,
        0.318898 -0.137795 -0.003937,
      ]
    }
    coordIndex [
      0, 1, 2, -1,
      2, 1, 3, -1,
      4, 0, 5, -1,
      5, 0, 2, -1,
      6, 4, 7, -1,
      7, 4, 5, -1,
      6, 7, 8, -1,
      8, 7, 9, -1,
      8, 9, 10, -1,
      10, 9, 11, -1,
      10, 11, 12, -1,
      12, 11, 13, -1,
      12, 13, 14, -1,
      14, 13, 15, -1,
      14, 15, 16, -1,
      16, 15, 17, -1,
      16, 17, 18, -1,
      18, 17, 19, -1,
      18, 19, 20, -1,
      20, 19, 21, -1,
      20, 21, 22, -1,
      22, 21, 23, -1,
      22, 23, 24, -1,
      24, 23, 25, -1,
      24, 25, 26, -1,
      26, 25, 27, -1,
      26, 27, 28, -1,
      28, 27, 29, -1,
      28, 29, 30, -1,
      30, 29, 31, -1,
      30, 31, 32, -1,
      32, 31, 33, -1,
      32, 33, 34, -1,
      34, 33, 35, -1,
      34, 35, 36, -1,
      36, 35, 37, -1,
      36, 37, 38, -1,
      38, 37, 39, -1,
      38, 39, 40, -1,
      40, 39, 41, -1,
      40, 41, 42, -1,
      42, 41, 43, -1,
      42, 43, 44, -1,
      44, 43, 45, -1,
      44, 45, 46, -1,
      46, 45, 47, -1,
      48, 46, 49, -1,
      49, 46, 47, -1,
      1, 48, 3, -1,
      3, 48, 49, -1,
      44, 46, 48, -1,
      6, 8, 4, -1,
      4, 8, 10, -1,
      4, 10, 0, -1,
      0, 10, 12, -1,
      0, 12, 14, -1,
      20, 22, 0, -1,
      0, 22, 24, -1,
      0, 24, 1, -1,
      24, 26, 1, -1,
      1, 26, 28, -1,
      1, 28, 30, -1,
      30, 32, 1, -1,
      1, 32, 34, -1,
      1, 34, 36, -1,
      36, 38, 1, -1,
      1, 38, 40, -1,
      1, 40, 48, -1,
      48, 40, 42, -1,
      48, 42, 44, -1,
      14, 16, 0, -1,
      0, 16, 18, -1,
      0, 18, 20, -1,
      9, 7, 5, -1,
      23, 21, 2, -1,
      2, 21, 19, -1,
      3, 39, 37, -1,
      37, 35, 3, -1,
      3, 35, 33, -1,
      3, 33, 31, -1,
      31, 29, 3, -1,
      3, 29, 27, -1,
      3, 27, 2, -1,
      2, 27, 25, -1,
      2, 25, 23, -1,
      2, 13, 5, -1,
      5, 13, 11, -1,
      5, 11, 9, -1,
      47, 45, 49, -1,
      49, 45, 43, -1,
      49, 43, 3, -1,
      3, 43, 41, -1,
      3, 41, 39, -1,
      19, 17, 2, -1,
      2, 17, 15, -1,
      2, 15, 13, -1,
      50, 51, 52, -1,
      52, 51, 53, -1,
      51, 54, 53, -1,
      53, 54, 55, -1,
      54, 56, 55, -1,
      55, 56, 57, -1,
      58, 59, 60, -1,
      60, 59, 61, -1,
      60, 61, 62, -1,
      62, 61, 63, -1,
      62, 63, 64, -1,
      64, 63, 65, -1,
      64, 65, 66, -1,
      66, 65, 67, -1,
      66, 67, 68, -1,
      68, 67, 69, -1,
      68, 69, 70, -1,
      70, 69, 71, -1,
      70, 71, 72, -1,
      72, 71, 73, -1,
      72, 73, 74, -1,
      74, 73, 75, -1,
      74, 75, 76, -1,
      76, 75, 77, -1,
      76, 77, 78, -1,
      78, 77, 79, -1,
      78, 79, 80, -1,
      80, 79, 81, -1,
      80, 81, 82, -1,
      82, 81, 83, -1,
      82, 83, 84, -1,
      84, 83, 85, -1,
      84, 85, 86, -1,
      86, 85, 87, -1,
      86, 87, 88, -1,
      88, 87, 89, -1,
      88, 89, 90, -1,
      90, 89, 91, -1,
      90, 91, 92, -1,
      92, 91, 93, -1,
      92, 93, 94, -1,
      94, 93, 95, -1,
      94, 95, 96, -1,
      96, 95, 97, -1,
      96, 97, 56, -1,
      56, 97, 57, -1,
      58, 98, 59, -1,
      59, 98, 99, -1,
      98, 50, 99, -1,
      99, 50, 52, -1,
      96, 56, 54, -1,
      50, 66, 68, -1,
      82, 84, 51, -1,
      51, 84, 86, -1,
      51, 86, 88, -1,
      58, 60, 98, -1,
      98, 60, 62, -1,
      98, 62, 50, -1,
      50, 62, 64, -1,
      50, 64, 66, -1,
      68, 70, 50, -1,
      50, 70, 72, -1,
      50, 72, 74, -1,
      74, 76, 50, -1,
      50, 76, 78, -1,
      50, 78, 51, -1,
      51, 78, 80, -1,
      51, 80, 82, -1,
      88, 90, 51, -1,
      51, 90, 92, -1,
      51, 92, 54, -1,
      54, 92, 94, -1,
      54, 94, 96, -1,
      61, 59, 99, -1,
      53, 91, 89, -1,
      89, 87, 53, -1,
      53, 87, 85, -1,
      53, 85, 83, -1,
      75, 73, 52, -1,
      52, 73, 71, -1,
      52, 71, 69, -1,
      57, 97, 55, -1,
      55, 97, 95, -1,
      55, 95, 53, -1,
      53, 95, 93, -1,
      53, 93, 91, -1,
      83, 81, 53, -1,
      53, 81, 79, -1,
      53, 79, 52, -1,
      52, 79, 77, -1,
      52, 77, 75, -1,
      69, 67, 52, -1,
      52, 67, 65, -1,
      52, 65, 99, -1,
      99, 65, 63, -1,
      99, 63, 61, -1,
    ]
  }
}

Shape {
  appearance Appearance {
    material Material {
      diffuseColor 0.9255 0.9255 0.9255
      specularColor 0.4627 0.4627 0.4627
      ambientIntensity 0.2
      transparency 0.0000
      shininess 0.5
    }
  }
  geometry IndexedFaceSet {
    ccw TRUE
    solid FALSE
    coord DEF co Coordinate {
      point [
        0.202758 0.143703 0.275591,
        0.202758 -0.143703 0.275591,
        0.216535 0.157480 0.118110,
        0.216535 -0.157480 0.118110,
        -0.202758 0.143703 0.275591,
        -0.216535 0.157480 0.118110,
        -0.202758 -0.143703 0.275591,
        -0.216535 -0.157480 0.118110,
      ]
    }
    coordIndex [
      0, 1, 2, -1,
      2, 1, 3, -1,
      4, 0, 5, -1,
      5, 0, 2, -1,
      6, 4, 7, -1,
      7, 4, 5, -1,
      1, 6, 3, -1,
      3, 6, 7, -1,
      4, 6, 0, -1,
      0, 6, 1, -1,
      7, 5, 3, -1,
      3, 5, 2, -1,
    ]
  }
}

Shape {
  appearance Appearance {
    material Material {
      diffuseColor 1.0000 1.0000 1.0000
      specularColor 0.5020 0.5020 0.5020
      ambientIntensity 0.2
      transparency 0.0000
      shininess 0.5
    }
  }
  geometry IndexedFaceSet {
    ccw TRUE
    solid FALSE
    coord DEF co Coordinate {
      point [
        0.295520 -0.116499 0.000000,
        0.314961 -0.118110 0.000000,
        0.314961 -0.157480 0.000000,
        0.032034 -0.017403 0.000000,
        0.033615 -0.017625 0.000000,
        -0.008789 -0.157480 0.000000,
        0.034692 -0.017643 0.000000,
        0.037007 -0.017403 0.000000,
        0.216083 -0.064600 0.000000,
        0.228064 -0.079994 0.000000,
        0.242416 -0.093206 0.000000,
        0.258746 -0.103875 0.000000,
        0.276610 -0.111711 0.000000,
        -0.008789 0.157480 0.000000,
        -0.004948 -0.012842 0.000000,
        -0.008789 -0.017403 0.000000,
        -0.004948 -0.017163 0.000000,
        0.016177 -0.017163 0.000000,
        0.023859 -0.015123 0.000000,
        0.023859 -0.010802 0.000000,
        0.016177 0.022207 0.000000,
        0.010896 0.017886 0.000000,
        0.010896 0.004922 0.000000,
        -0.003988 0.017886 0.000000,
        -0.003028 0.004922 0.000000,
        0.010896 0.000601 0.000000,
        0.010896 -0.012842 0.000000,
        -0.003028 0.000601 0.000000,
        0.076672 -0.017163 0.000000,
        0.056507 -0.017163 0.000000,
        0.039544 -0.017140 0.000000,
        0.043359 -0.015827 0.000000,
        -0.003988 0.022207 0.000000,
        0.051069 0.011837 0.000000,
        0.048761 0.015518 0.000000,
        0.071391 0.022207 0.000000,
        0.036956 0.017930 0.000000,
        0.039902 0.016867 0.000000,
        0.024565 -0.011193 0.000000,
        0.042627 0.015044 0.000000,
        0.045005 0.012419 0.000000,
        0.047865 0.002102 0.000000,
        0.047467 -0.002160 0.000000,
        0.046397 -0.005547 0.000000,
        0.037636 -0.012910 0.000000,
        0.033964 -0.013322 0.000000,
        0.040505 -0.011854 0.000000,
        0.042921 -0.010226 0.000000,
        0.044769 -0.008277 0.000000,
        0.028738 -0.012742 0.000000,
        0.228064 0.079994 0.000000,
        0.216083 0.064600 0.000000,
        0.314961 0.157480 0.000000,
        0.314961 0.118110 0.000000,
        0.295520 0.116499 0.000000,
        0.046628 0.009380 0.000000,
        0.047677 0.005165 0.000000,
        0.276610 0.111711 0.000000,
        0.258746 0.103875 0.000000,
        0.242416 0.093206 0.000000,
        0.045207 0.018937 0.000000,
        0.076672 0.022207 0.000000,
        0.046526 -0.013805 0.000000,
        0.049483 -0.010691 0.000000,
        0.056507 -0.012842 0.000000,
        0.051581 -0.006948 0.000000,
        0.071391 -0.012842 0.000000,
        0.206798 0.047444 0.000000,
        0.200465 0.028994 0.000000,
        0.197254 0.009754 0.000000,
        0.052766 -0.002780 0.000000,
        0.053146 0.001779 0.000000,
        0.052580 0.007376 0.000000,
        0.041467 0.021089 0.000000,
        0.037078 0.022364 0.000000,
        0.033124 0.022687 0.000000,
        0.197254 -0.009754 0.000000,
        0.198530 -0.017403 0.000000,
        0.200465 -0.028994 0.000000,
        0.206798 -0.047444 0.000000,
        0.028411 0.022362 0.000000,
        0.023859 0.021126 0.000000,
        0.023859 0.015845 0.000000,
        0.028294 0.017744 0.000000,
        0.033079 0.018366 0.000000,
        -0.082728 -0.017163 0.000000,
        -0.076967 -0.017163 0.000000,
        -0.047199 -0.017163 0.000000,
        -0.042352 -0.006373 0.000000,
        -0.040095 -0.009894 0.000000,
        -0.036854 -0.012997 0.000000,
        -0.032743 -0.015386 0.000000,
        -0.028207 -0.016738 0.000000,
        -0.023335 -0.017163 0.000000,
        -0.012630 -0.017163 0.000000,
        -0.012630 0.022207 0.000000,
        -0.023741 0.022207 0.000000,
        -0.029429 0.021599 0.000000,
        -0.034035 0.019981 0.000000,
        -0.038320 0.017109 0.000000,
        -0.062083 0.022207 0.000000,
        -0.038361 0.017073 0.000000,
        -0.041145 0.013986 0.000000,
        -0.042975 0.010600 0.000000,
        -0.052961 -0.017163 0.000000,
        -0.056719 -0.006120 0.000000,
        -0.072983 -0.006120 0.000000,
        -0.044032 0.006721 0.000000,
        -0.044319 0.003017 0.000000,
        -0.043766 -0.002252 0.000000,
        -0.067365 0.022207 0.000000,
        -0.200465 0.028994 0.000000,
        -0.206798 0.047444 0.000000,
        -0.216083 0.064600 0.000000,
        -0.228064 0.079994 0.000000,
        -0.242416 0.093206 0.000000,
        -0.258746 0.103875 0.000000,
        -0.276610 0.111711 0.000000,
        -0.314961 0.157480 0.000000,
        -0.295520 0.116499 0.000000,
        -0.314961 0.118110 0.000000,
        -0.206798 -0.047444 0.000000,
        -0.200465 -0.028994 0.000000,
        -0.198530 -0.017403 0.000000,
        -0.197254 -0.009754 0.000000,
        -0.197254 0.009754 0.000000,
        -0.258746 -0.103875 0.000000,
        -0.276610 -0.111711 0.000000,
        -0.314961 -0.157480 0.000000,
        -0.295520 -0.116499 0.000000,
        -0.314961 -0.118110 0.000000,
        -0.242416 -0.093206 0.000000,
        -0.228064 -0.079994 0.000000,
        -0.216083 -0.064600 0.000000,
        0.028056 -0.016846 0.000000,
        0.314961 -0.118110 0.118110,
        0.314961 -0.157480 0.118110,
        0.295520 -0.116499 0.118110,
        0.276610 -0.111711 0.118110,
        0.258746 -0.103875 0.118110,
        0.242416 -0.093206 0.118110,
        0.228064 -0.079994 0.118110,
        0.216083 -0.064600 0.118110,
        0.206798 -0.047444 0.118110,
        0.200465 -0.028994 0.118110,
        0.197254 -0.009754 0.118110,
        0.197254 0.009754 0.118110,
        0.200465 0.028994 0.118110,
        0.206798 0.047444 0.118110,
        0.216083 0.064600 0.118110,
        0.228064 0.079994 0.118110,
        0.242416 0.093206 0.118110,
        0.258746 0.103875 0.118110,
        0.276610 0.111711 0.118110,
        0.295520 0.116499 0.118110,
        0.314961 0.118110 0.118110,
        0.314961 0.157480 0.118110,
        -0.314961 0.157480 0.118110,
        -0.314961 0.118110 0.118110,
        -0.295520 0.116499 0.118110,
        -0.276610 0.111711 0.118110,
        -0.258746 0.103875 0.118110,
        -0.242416 0.093206 0.118110,
        -0.228064 0.079994 0.118110,
        -0.216083 0.064600 0.118110,
        -0.206798 0.047444 0.118110,
        -0.200465 0.028994 0.118110,
        -0.197254 0.009754 0.118110,
        -0.197254 -0.009754 0.118110,
        -0.200465 -0.028994 0.118110,
        -0.206798 -0.047444 0.118110,
        -0.216083 -0.064600 0.118110,
        -0.228064 -0.079994 0.118110,
        -0.242416 -0.093206 0.118110,
        -0.258746 -0.103875 0.118110,
        -0.276610 -0.111711 0.118110,
        -0.295520 -0.116499 0.118110,
        -0.314961 -0.118110 0.118110,
        -0.314961 -0.157480 0.118110,
      ]
    }
    coordIndex [
      0, 1, 2, -1,
      3, 4, 5, -1,
      5, 4, 6, -1,
      5, 6, 7, -1,
      5, 8, 9, -1,
      9, 10, 5, -1,
      5, 10, 11, -1,
      5, 11, 2, -1,
      2, 11, 12, -1,
      2, 12, 0, -1,
      13, 14, 15, -1,
      15, 14, 16, -1,
      15, 16, 17, -1,
      18, 17, 19, -1,
      19, 17, 20, -1,
      21, 22, 23, -1,
      23, 22, 24, -1,
      25, 26, 27, -1,
      27, 26, 14, -1,
      28, 7, 29, -1,
      29, 7, 30, -1,
      29, 30, 31, -1,
      20, 32, 13, -1,
      13, 32, 23, -1,
      13, 23, 14, -1,
      14, 23, 24, -1,
      14, 24, 27, -1,
      33, 34, 35, -1,
      36, 37, 38, -1,
      38, 37, 39, -1,
      38, 39, 40, -1,
      41, 42, 38, -1,
      38, 42, 43, -1,
      44, 45, 46, -1,
      46, 45, 47, -1,
      43, 48, 38, -1,
      38, 48, 47, -1,
      38, 47, 49, -1,
      49, 47, 45, -1,
      28, 50, 51, -1,
      52, 53, 54, -1,
      40, 55, 38, -1,
      38, 55, 56, -1,
      38, 56, 41, -1,
      54, 57, 52, -1,
      52, 57, 58, -1,
      52, 58, 59, -1,
      34, 60, 35, -1,
      35, 60, 13, -1,
      35, 13, 61, -1,
      61, 13, 52, -1,
      61, 52, 28, -1,
      28, 52, 59, -1,
      28, 59, 50, -1,
      31, 62, 29, -1,
      29, 62, 63, -1,
      29, 63, 64, -1,
      64, 63, 65, -1,
      64, 65, 66, -1,
      51, 67, 28, -1,
      28, 67, 68, -1,
      28, 68, 69, -1,
      65, 70, 66, -1,
      66, 70, 71, -1,
      66, 71, 35, -1,
      35, 71, 72, -1,
      35, 72, 33, -1,
      60, 73, 13, -1,
      13, 73, 74, -1,
      13, 74, 75, -1,
      69, 76, 28, -1,
      28, 76, 77, -1,
      28, 77, 7, -1,
      7, 77, 78, -1,
      7, 78, 5, -1,
      5, 78, 79, -1,
      5, 79, 8, -1,
      75, 80, 13, -1,
      13, 80, 81, -1,
      13, 81, 20, -1,
      20, 81, 82, -1,
      20, 82, 19, -1,
      19, 82, 83, -1,
      19, 83, 38, -1,
      38, 83, 84, -1,
      38, 84, 36, -1,
      85, 86, 15, -1,
      87, 88, 89, -1,
      89, 90, 87, -1,
      87, 90, 91, -1,
      87, 91, 92, -1,
      93, 94, 15, -1,
      15, 94, 95, -1,
      15, 95, 13, -1,
      13, 95, 96, -1,
      13, 96, 97, -1,
      98, 99, 100, -1,
      99, 101, 100, -1,
      100, 101, 102, -1,
      100, 102, 103, -1,
      92, 93, 87, -1,
      87, 93, 15, -1,
      87, 15, 104, -1,
      104, 15, 86, -1,
      104, 86, 105, -1,
      105, 86, 106, -1,
      103, 107, 100, -1,
      100, 107, 108, -1,
      100, 108, 87, -1,
      87, 108, 109, -1,
      87, 109, 88, -1,
      110, 111, 112, -1,
      112, 113, 110, -1,
      110, 113, 114, -1,
      110, 114, 115, -1,
      116, 117, 118, -1,
      118, 117, 119, -1,
      118, 119, 120, -1,
      97, 98, 13, -1,
      13, 98, 100, -1,
      13, 100, 118, -1,
      118, 100, 110, -1,
      118, 110, 116, -1,
      116, 110, 115, -1,
      121, 122, 15, -1,
      15, 122, 123, -1,
      15, 123, 85, -1,
      85, 123, 124, -1,
      85, 124, 110, -1,
      110, 124, 125, -1,
      110, 125, 111, -1,
      126, 5, 127, -1,
      127, 5, 128, -1,
      127, 128, 129, -1,
      129, 128, 130, -1,
      126, 131, 5, -1,
      5, 131, 132, -1,
      5, 132, 133, -1,
      133, 121, 5, -1,
      5, 121, 15, -1,
      5, 15, 3, -1,
      3, 15, 17, -1,
      3, 17, 134, -1,
      134, 17, 18, -1,
      135, 136, 1, -1,
      1, 136, 2, -1,
      135, 1, 137, -1,
      137, 1, 0, -1,
      137, 0, 138, -1,
      138, 0, 12, -1,
      138, 12, 139, -1,
      139, 12, 11, -1,
      139, 11, 140, -1,
      140, 11, 10, -1,
      140, 10, 141, -1,
      141, 10, 9, -1,
      141, 9, 142, -1,
      142, 9, 8, -1,
      142, 8, 143, -1,
      143, 8, 79, -1,
      143, 79, 144, -1,
      79, 78, 144, -1,
      144, 78, 77, -1,
      144, 77, 145, -1,
      145, 77, 76, -1,
      145, 76, 146, -1,
      146, 76, 69, -1,
      146, 69, 147, -1,
      147, 69, 68, -1,
      147, 68, 148, -1,
      148, 68, 67, -1,
      148, 67, 149, -1,
      149, 67, 51, -1,
      149, 51, 150, -1,
      150, 51, 50, -1,
      150, 50, 151, -1,
      151, 50, 59, -1,
      151, 59, 152, -1,
      152, 59, 58, -1,
      152, 58, 153, -1,
      153, 58, 57, -1,
      153, 57, 154, -1,
      154, 57, 54, -1,
      154, 54, 155, -1,
      155, 54, 53, -1,
      156, 155, 52, -1,
      52, 155, 53, -1,
      156, 52, 157, -1,
      157, 52, 13, -1,
      157, 13, 118, -1,
      158, 157, 120, -1,
      120, 157, 118, -1,
      158, 120, 159, -1,
      159, 120, 119, -1,
      159, 119, 160, -1,
      160, 119, 117, -1,
      160, 117, 161, -1,
      161, 117, 116, -1,
      161, 116, 162, -1,
      162, 116, 115, -1,
      162, 115, 163, -1,
      163, 115, 114, -1,
      163, 114, 164, -1,
      164, 114, 113, -1,
      164, 113, 165, -1,
      165, 113, 112, -1,
      165, 112, 166, -1,
      166, 112, 111, -1,
      166, 111, 167, -1,
      167, 111, 125, -1,
      167, 125, 168, -1,
      125, 124, 168, -1,
      168, 124, 123, -1,
      168, 123, 169, -1,
      169, 123, 122, -1,
      169, 122, 170, -1,
      170, 122, 121, -1,
      170, 121, 171, -1,
      171, 121, 133, -1,
      171, 133, 172, -1,
      172, 133, 132, -1,
      172, 132, 173, -1,
      173, 132, 131, -1,
      173, 131, 174, -1,
      174, 131, 126, -1,
      174, 126, 175, -1,
      175, 126, 127, -1,
      175, 127, 176, -1,
      176, 127, 129, -1,
      176, 129, 177, -1,
      177, 129, 130, -1,
      178, 177, 128, -1,
      128, 177, 130, -1,
      2, 136, 5, -1,
      5, 136, 178, -1,
      5, 178, 128, -1,
      143, 144, 178, -1,
      176, 177, 178, -1,
      155, 156, 154, -1,
      154, 156, 153, -1,
      140, 141, 178, -1,
      178, 141, 142, -1,
      178, 142, 143, -1,
      135, 137, 136, -1,
      136, 137, 138, -1,
      136, 138, 178, -1,
      178, 138, 139, -1,
      178, 139, 140, -1,
      160, 157, 159, -1,
      159, 157, 158, -1,
      161, 162, 151, -1,
      151, 162, 163, -1,
      151, 163, 164, -1,
      147, 148, 166, -1,
      166, 148, 149, -1,
      153, 156, 152, -1,
      152, 156, 157, -1,
      152, 157, 151, -1,
      151, 157, 160, -1,
      151, 160, 161, -1,
      169, 144, 145, -1,
      164, 165, 151, -1,
      151, 165, 166, -1,
      151, 166, 150, -1,
      150, 166, 149, -1,
      169, 170, 144, -1,
      144, 170, 171, -1,
      144, 171, 172, -1,
      172, 173, 144, -1,
      144, 173, 174, -1,
      144, 174, 178, -1,
      178, 174, 175, -1,
      178, 175, 176, -1,
      147, 166, 146, -1,
      146, 166, 167, -1,
      146, 167, 145, -1,
      145, 167, 168, -1,
      145, 168, 169, -1,
    ]
  }
}

Shape {
  appearance Appearance {
    material Material {
      diffuseColor 0.8314 0.6706 0.1294
      specularColor 0.6667 0.5373 0.1020
      ambientIntensity 0.2
      transparency 0.0000
      shininess 0.5
    }
  }
  geometry IndexedFaceSet {
    ccw TRUE
    solid FALSE
    coord DEF co Coordinate {
      point [
        -0.082728 -0.017163 0.000000,
        -0.067365 0.022207 0.000000,
        -0.067365 0.022207 0.003937,
        -0.082728 -0.017163 0.003937,
      ]
    }
    coordIndex [
      2, 3, 1, -1,
      1, 3, 0, -1,
    ]
  }
}

Shape {
  appearance Appearance {
    material Material {
      diffuseColor 0.9255 0.9255 0.9255
      specularColor 0.4627 0.4627 0.4627
      ambientIntensity 0.2
      transparency 0.0000
      shininess 0.5
    }
  }
  geometry IndexedFaceSet {
    ccw TRUE
    solid FALSE
    coord DEF co Coordinate {
      point [
        -0.082728 -0.017163 0.000000,
        -0.076967 -0.017163 0.000000,
        -0.082728 -0.017163 0.003937,
        -0.076967 -0.017163 0.003937,
      ]
    }
    coordIndex [
      2, 3, 0, -1,
      0, 3, 1, -1,
    ]
  }
}

Shape {
  appearance Appearance {
    material Material {
      diffuseColor 1.0000 1.0000 1.0000
      specularColor 0.8784 0.8784 0.8784
      ambientIntensity 0.2
      transparency 0.0000
      shininess 0.5
    }
  }
  geometry IndexedFaceSet {
    ccw TRUE
    solid FALSE
    coord DEF co Coordinate {
      point [
        0.032034 -0.017403 0.000000,
        0.033615 -0.017625 0.000000,
        0.034692 -0.017643 0.000000,
        0.037007 -0.017403 0.000000,
        -0.004948 -0.012842 0.000000,
        -0.004948 -0.017163 0.000000,
        0.016177 -0.017163 0.000000,
        0.023859 -0.015123 0.000000,
        0.023859 -0.010802 0.000000,
        0.016177 0.022207 0.000000,
        0.010896 0.017886 0.000000,
        0.010896 0.004922 0.000000,
        -0.003988 0.017886 0.000000,
        -0.003028 0.004922 0.000000,
        0.010896 0.000601 0.000000,
        0.010896 -0.012842 0.000000,
        -0.003028 0.000601 0.000000,
        0.076672 -0.017163 0.000000,
        0.056507 -0.017163 0.000000,
        0.039544 -0.017140 0.000000,
        0.043359 -0.015827 0.000000,
        -0.003988 0.022207 0.000000,
        0.051069 0.011837 0.000000,
        0.048761 0.015518 0.000000,
        0.071391 0.022207 0.000000,
        0.036956 0.017930 0.000000,
        0.039902 0.016867 0.000000,
        0.024565 -0.011193 0.000000,
        0.042627 0.015044 0.000000,
        0.045005 0.012419 0.000000,
        0.047865 0.002102 0.000000,
        0.047467 -0.002160 0.000000,
        0.046397 -0.005547 0.000000,
        0.037636 -0.012910 0.000000,
        0.033964 -0.013322 0.000000,
        0.040505 -0.011854 0.000000,
        0.042921 -0.010226 0.000000,
        0.044769 -0.008277 0.000000,
        0.028738 -0.012742 0.000000,
        0.046628 0.009380 0.000000,
        0.047677 0.005165 0.000000,
        0.045207 0.018937 0.000000,
        0.076672 0.022207 0.000000,
        0.046526 -0.013805 0.000000,
        0.049483 -0.010691 0.000000,
        0.056507 -0.012842 0.000000,
        0.051581 -0.006948 0.000000,
        0.071391 -0.012842 0.000000,
        0.052766 -0.002780 0.000000,
        0.053146 0.001779 0.000000,
        0.052580 0.007376 0.000000,
        0.041467 0.021089 0.000000,
        0.037078 0.022364 0.000000,
        0.033124 0.022687 0.000000,
        0.028411 0.022362 0.000000,
        0.023859 0.021126 0.000000,
        0.023859 0.015845 0.000000,
        0.028294 0.017744 0.000000,
        0.033079 0.018366 0.000000,
        -0.076967 -0.017163 0.000000,
        -0.047199 -0.017163 0.000000,
        -0.042352 -0.006373 0.000000,
        -0.040095 -0.009894 0.000000,
        -0.036854 -0.012997 0.000000,
        -0.032743 -0.015386 0.000000,
        -0.028207 -0.016738 0.000000,
        -0.023335 -0.017163 0.000000,
        -0.012630 -0.017163 0.000000,
        -0.012630 0.022207 0.000000,
        -0.023741 0.022207 0.000000,
        -0.029429 0.021599 0.000000,
        -0.034035 0.019981 0.000000,
        -0.038320 0.017109 0.000000,
        -0.062083 0.022207 0.000000,
        -0.038361 0.017073 0.000000,
        -0.041145 0.013986 0.000000,
        -0.042975 0.010600 0.000000,
        -0.052961 -0.017163 0.000000,
        -0.056719 -0.006120 0.000000,
        -0.072983 -0.006120 0.000000,
        -0.044032 0.006721 0.000000,
        -0.044319 0.003017 0.000000,
        -0.043766 -0.002252 0.000000,
        -0.067365 0.022207 0.000000,
        0.028056 -0.016846 0.000000,
        -0.067365 0.022207 0.003937,
        -0.082728 -0.017163 0.003937,
        -0.076967 -0.017163 0.003937,
        -0.072983 -0.006120 0.003937,
        -0.056719 -0.006120 0.003937,
        -0.052961 -0.017163 0.003937,
        -0.047199 -0.017163 0.003937,
        -0.062083 0.022207 0.003937,
        -0.058047 -0.001799 0.003937,
        -0.071213 -0.001799 0.003937,
        -0.063921 0.014645 0.003937,
        -0.064300 0.016010 0.003937,
        -0.064551 0.017406 0.003937,
        -0.064679 0.017406 0.003937,
        -0.064935 0.016015 0.003937,
        -0.065286 0.014645 0.003937,
        -0.058047 -0.001799 0.000000,
        -0.071213 -0.001799 0.000000,
        -0.063921 0.014645 0.000000,
        -0.064300 0.016010 0.000000,
        -0.064551 0.017406 0.000000,
        -0.064679 0.017406 0.000000,
        -0.064935 0.016015 0.000000,
        -0.065286 0.014645 0.000000,
        -0.023335 -0.017163 0.003937,
        -0.012630 -0.017163 0.003937,
        -0.012630 0.022207 0.003937,
        -0.023741 0.022207 0.003937,
        -0.044319 0.003017 0.003937,
        -0.044032 0.006721 0.003937,
        -0.042975 0.010600 0.003937,
        -0.041145 0.013986 0.003937,
        -0.038361 0.017073 0.003937,
        -0.038320 0.017109 0.003937,
        -0.034035 0.019981 0.003937,
        -0.029429 0.021599 0.003937,
        -0.028207 -0.016738 0.003937,
        -0.032743 -0.015386 0.003937,
        -0.036854 -0.012997 0.003937,
        -0.040095 -0.009894 0.003937,
        -0.042352 -0.006373 0.003937,
        -0.043766 -0.002252 0.003937,
        -0.036416 0.012365 0.003937,
        -0.034504 0.014395 0.003937,
        -0.031628 0.016253 0.003937,
        -0.028378 0.017391 0.003937,
        -0.023718 0.017886 0.003937,
        -0.017912 0.017886 0.003937,
        -0.017912 -0.012842 0.003937,
        -0.023501 -0.012842 0.003937,
        -0.027654 -0.012456 0.003937,
        -0.030967 -0.011421 0.003937,
        -0.033652 -0.009827 0.003937,
        -0.035860 -0.007646 0.003937,
        -0.037521 -0.004931 0.003937,
        -0.038676 -0.001231 0.003937,
        -0.039037 0.002904 0.003937,
        -0.038703 0.006823 0.003937,
        -0.037783 0.009937 0.003937,
        -0.023718 0.017886 0.000000,
        -0.017912 0.017886 0.000000,
        -0.028378 0.017391 0.000000,
        -0.031628 0.016253 0.000000,
        -0.034504 0.014395 0.000000,
        -0.036416 0.012365 0.000000,
        -0.037783 0.009937 0.000000,
        -0.038703 0.006823 0.000000,
        -0.039037 0.002904 0.000000,
        -0.038676 -0.001231 0.000000,
        -0.037521 -0.004931 0.000000,
        -0.035860 -0.007646 0.000000,
        -0.033652 -0.009827 0.000000,
        -0.030967 -0.011421 0.000000,
        -0.027654 -0.012456 0.000000,
        -0.023501 -0.012842 0.000000,
        -0.017912 -0.012842 0.000000,
        -0.004948 -0.012842 0.003937,
        -0.004948 -0.017163 0.003937,
        0.016177 -0.017163 0.003937,
        0.016177 0.022207 0.003937,
        -0.003988 0.022207 0.003937,
        -0.003988 0.017886 0.003937,
        0.010896 0.017886 0.003937,
        0.010896 0.004922 0.003937,
        -0.003028 0.004922 0.003937,
        -0.003028 0.000601 0.003937,
        0.010896 0.000601 0.003937,
        0.010896 -0.012842 0.003937,
        0.023859 -0.010802 0.003937,
        0.023859 -0.015123 0.003937,
        0.028056 -0.016846 0.003937,
        0.034692 -0.017643 0.003937,
        0.033615 -0.017625 0.003937,
        0.053146 0.001779 0.003937,
        0.052766 -0.002780 0.003937,
        0.051581 -0.006948 0.003937,
        0.049483 -0.010691 0.003937,
        0.046526 -0.013805 0.003937,
        0.043359 -0.015827 0.003937,
        0.039544 -0.017140 0.003937,
        0.033124 0.022687 0.003937,
        0.037078 0.022364 0.003937,
        0.041467 0.021089 0.003937,
        0.045207 0.018937 0.003937,
        0.048761 0.015518 0.003937,
        0.051069 0.011837 0.003937,
        0.052580 0.007376 0.003937,
        0.023859 0.021126 0.003937,
        0.028411 0.022362 0.003937,
        0.023859 0.015845 0.003937,
        0.033079 0.018366 0.003937,
        0.028294 0.017744 0.003937,
        0.047865 0.002102 0.003937,
        0.047677 0.005165 0.003937,
        0.046628 0.009380 0.003937,
        0.045005 0.012419 0.003937,
        0.042627 0.015044 0.003937,
        0.039902 0.016867 0.003937,
        0.036956 0.017930 0.003937,
        0.033964 -0.013322 0.003937,
        0.037636 -0.012910 0.003937,
        0.040505 -0.011854 0.003937,
        0.042921 -0.010226 0.003937,
        0.044769 -0.008277 0.003937,
        0.046397 -0.005547 0.003937,
        0.047467 -0.002160 0.003937,
        0.024565 -0.011193 0.003937,
        0.028738 -0.012742 0.003937,
        0.056507 -0.012842 0.003937,
        0.056507 -0.017163 0.003937,
        0.076672 -0.017163 0.003937,
        0.076672 0.022207 0.003937,
        0.071391 0.022207 0.003937,
        0.071391 -0.012842 0.003937,
      ]
    }
    coordIndex [
      87, 88, 59, -1,
      59, 88, 79, -1,
      88, 89, 79, -1,
      79, 89, 78, -1,
      89, 90, 78, -1,
      78, 90, 77, -1,
      90, 91, 77, -1,
      77, 91, 60, -1,
      91, 92, 60, -1,
      60, 92, 73, -1,
      92, 85, 73, -1,
      73, 85, 83, -1,
      93, 89, 94, -1,
      94, 89, 88, -1,
      95, 92, 93, -1,
      93, 92, 91, -1,
      93, 91, 89, -1,
      89, 91, 90, -1,
      95, 96, 92, -1,
      92, 96, 97, -1,
      92, 97, 85, -1,
      85, 97, 98, -1,
      85, 98, 99, -1,
      99, 100, 85, -1,
      85, 100, 94, -1,
      85, 94, 86, -1,
      86, 94, 88, -1,
      86, 88, 87, -1,
      93, 94, 101, -1,
      101, 94, 102, -1,
      95, 93, 103, -1,
      103, 93, 101, -1,
      95, 103, 104, -1,
      95, 104, 96, -1,
      96, 104, 105, -1,
      96, 105, 97, -1,
      98, 97, 106, -1,
      106, 97, 105, -1,
      98, 106, 107, -1,
      98, 107, 99, -1,
      99, 107, 108, -1,
      99, 108, 100, -1,
      94, 100, 102, -1,
      102, 100, 108, -1,
      109, 110, 66, -1,
      66, 110, 67, -1,
      110, 111, 67, -1,
      67, 111, 68, -1,
      111, 112, 68, -1,
      68, 112, 69, -1,
      113, 81, 80, -1,
      113, 80, 114, -1,
      114, 80, 76, -1,
      114, 76, 115, -1,
      115, 76, 75, -1,
      115, 75, 116, -1,
      116, 75, 74, -1,
      116, 74, 117, -1,
      117, 74, 72, -1,
      117, 72, 118, -1,
      118, 72, 71, -1,
      118, 71, 119, -1,
      119, 71, 70, -1,
      119, 70, 120, -1,
      120, 70, 69, -1,
      120, 69, 112, -1,
      109, 66, 65, -1,
      109, 65, 121, -1,
      121, 65, 64, -1,
      121, 64, 122, -1,
      122, 64, 63, -1,
      122, 63, 123, -1,
      123, 63, 62, -1,
      123, 62, 124, -1,
      124, 62, 61, -1,
      124, 61, 125, -1,
      125, 61, 82, -1,
      125, 82, 126, -1,
      126, 82, 81, -1,
      126, 81, 113, -1,
      115, 116, 127, -1,
      127, 116, 117, -1,
      127, 117, 128, -1,
      128, 117, 118, -1,
      128, 118, 129, -1,
      129, 118, 119, -1,
      129, 119, 130, -1,
      130, 119, 120, -1,
      130, 120, 131, -1,
      131, 120, 112, -1,
      131, 112, 132, -1,
      132, 112, 111, -1,
      132, 111, 133, -1,
      133, 111, 110, -1,
      133, 110, 134, -1,
      134, 110, 109, -1,
      134, 109, 135, -1,
      135, 109, 121, -1,
      135, 121, 136, -1,
      136, 121, 122, -1,
      136, 122, 137, -1,
      137, 122, 123, -1,
      137, 123, 138, -1,
      138, 123, 124, -1,
      138, 124, 139, -1,
      139, 124, 125, -1,
      139, 125, 140, -1,
      140, 125, 126, -1,
      140, 126, 141, -1,
      141, 126, 113, -1,
      141, 113, 142, -1,
      142, 113, 114, -1,
      142, 114, 143, -1,
      143, 114, 115, -1,
      143, 115, 127, -1,
      131, 132, 144, -1,
      144, 132, 145, -1,
      131, 144, 146, -1,
      131, 146, 130, -1,
      130, 146, 147, -1,
      130, 147, 129, -1,
      129, 147, 148, -1,
      129, 148, 128, -1,
      128, 148, 149, -1,
      128, 149, 127, -1,
      127, 149, 150, -1,
      127, 150, 143, -1,
      143, 150, 151, -1,
      143, 151, 142, -1,
      142, 151, 152, -1,
      142, 152, 141, -1,
      141, 152, 153, -1,
      141, 153, 140, -1,
      140, 153, 154, -1,
      140, 154, 139, -1,
      139, 154, 155, -1,
      139, 155, 138, -1,
      138, 155, 156, -1,
      138, 156, 137, -1,
      137, 156, 157, -1,
      137, 157, 136, -1,
      136, 157, 158, -1,
      136, 158, 135, -1,
      135, 158, 159, -1,
      135, 159, 134, -1,
      133, 134, 160, -1,
      160, 134, 159, -1,
      132, 133, 145, -1,
      145, 133, 160, -1,
      161, 162, 4, -1,
      4, 162, 5, -1,
      162, 163, 5, -1,
      5, 163, 6, -1,
      163, 164, 6, -1,
      6, 164, 9, -1,
      164, 165, 9, -1,
      9, 165, 21, -1,
      165, 166, 21, -1,
      21, 166, 12, -1,
      166, 167, 12, -1,
      12, 167, 10, -1,
      167, 168, 10, -1,
      10, 168, 11, -1,
      168, 169, 11, -1,
      11, 169, 13, -1,
      169, 170, 13, -1,
      13, 170, 16, -1,
      170, 171, 16, -1,
      16, 171, 14, -1,
      171, 172, 14, -1,
      14, 172, 15, -1,
      172, 161, 15, -1,
      15, 161, 4, -1,
      163, 162, 161, -1,
      161, 172, 163, -1,
      163, 172, 171, -1,
      163, 171, 164, -1,
      166, 165, 167, -1,
      167, 165, 164, -1,
      167, 164, 168, -1,
      168, 164, 171, -1,
      168, 171, 169, -1,
      169, 171, 170, -1,
      173, 174, 8, -1,
      8, 174, 7, -1,
      7, 174, 175, -1,
      176, 2, 1, -1,
      176, 1, 177, -1,
      177, 1, 0, -1,
      177, 0, 175, -1,
      175, 0, 84, -1,
      175, 84, 7, -1,
      178, 49, 48, -1,
      178, 48, 179, -1,
      179, 48, 46, -1,
      179, 46, 180, -1,
      180, 46, 44, -1,
      180, 44, 181, -1,
      181, 44, 43, -1,
      181, 43, 182, -1,
      182, 43, 20, -1,
      182, 20, 183, -1,
      183, 20, 19, -1,
      183, 19, 184, -1,
      184, 19, 176, -1,
      176, 19, 3, -1,
      176, 3, 2, -1,
      185, 53, 52, -1,
      185, 52, 186, -1,
      186, 52, 51, -1,
      186, 51, 187, -1,
      187, 51, 41, -1,
      187, 41, 188, -1,
      188, 41, 23, -1,
      188, 23, 189, -1,
      189, 23, 22, -1,
      189, 22, 190, -1,
      190, 22, 50, -1,
      190, 50, 191, -1,
      191, 50, 49, -1,
      191, 49, 178, -1,
      192, 55, 54, -1,
      192, 54, 193, -1,
      193, 54, 53, -1,
      193, 53, 185, -1,
      192, 194, 55, -1,
      55, 194, 56, -1,
      195, 58, 57, -1,
      195, 57, 196, -1,
      196, 57, 56, -1,
      196, 56, 194, -1,
      197, 30, 40, -1,
      197, 40, 198, -1,
      198, 40, 39, -1,
      198, 39, 199, -1,
      199, 39, 29, -1,
      199, 29, 200, -1,
      200, 29, 28, -1,
      200, 28, 201, -1,
      201, 28, 26, -1,
      201, 26, 202, -1,
      202, 26, 25, -1,
      202, 25, 203, -1,
      203, 25, 58, -1,
      203, 58, 195, -1,
      204, 34, 33, -1,
      204, 33, 205, -1,
      205, 33, 35, -1,
      205, 35, 206, -1,
      206, 35, 36, -1,
      206, 36, 207, -1,
      207, 36, 37, -1,
      207, 37, 208, -1,
      208, 37, 32, -1,
      208, 32, 209, -1,
      209, 32, 31, -1,
      209, 31, 210, -1,
      210, 31, 30, -1,
      210, 30, 197, -1,
      173, 8, 27, -1,
      173, 27, 211, -1,
      211, 27, 38, -1,
      211, 38, 212, -1,
      212, 38, 34, -1,
      212, 34, 204, -1,
      205, 176, 204, -1,
      204, 176, 177, -1,
      204, 177, 212, -1,
      212, 177, 175, -1,
      212, 175, 211, -1,
      211, 175, 174, -1,
      211, 174, 173, -1,
      194, 192, 196, -1,
      196, 192, 193, -1,
      196, 193, 195, -1,
      195, 193, 185, -1,
      195, 185, 203, -1,
      203, 185, 186, -1,
      203, 186, 202, -1,
      202, 186, 187, -1,
      202, 187, 201, -1,
      201, 187, 188, -1,
      201, 188, 200, -1,
      200, 188, 189, -1,
      200, 189, 199, -1,
      199, 189, 190, -1,
      199, 190, 198, -1,
      198, 190, 191, -1,
      198, 191, 197, -1,
      197, 191, 178, -1,
      197, 178, 210, -1,
      210, 178, 179, -1,
      210, 179, 209, -1,
      209, 179, 180, -1,
      209, 180, 208, -1,
      208, 180, 181, -1,
      208, 181, 207, -1,
      207, 181, 182, -1,
      207, 182, 206, -1,
      206, 182, 183, -1,
      206, 183, 205, -1,
      205, 183, 184, -1,
      205, 184, 176, -1,
      213, 214, 45, -1,
      45, 214, 18, -1,
      214, 215, 18, -1,
      18, 215, 17, -1,
      215, 216, 17, -1,
      17, 216, 42, -1,
      216, 217, 42, -1,
      42, 217, 24, -1,
      217, 218, 24, -1,
      24, 218, 47, -1,
      218, 213, 47, -1,
      47, 213, 45, -1,
      217, 216, 218, -1,
      218, 216, 215, -1,
      218, 215, 213, -1,
      213, 215, 214, -1,
    ]
  }
}

Shape {
  appearance Appearance {
    material Material {
      diffuseColor 1.0000 1.0000 1.0000
      specularColor 0.5020 0.5020 0.5020
      ambientIntensity 0.2
      transparency 0.0000
      shininess 0.5
    }
  }
  geometry IndexedFaceSet {
    ccw TRUE
    solid FALSE
    coord DEF co Coordinate {
      point [
        -0.058047 -0.001799 0.000000,
        -0.071213 -0.001799 0.000000,
        -0.063921 0.014645 0.000000,
        -0.064300 0.016010 0.000000,
        -0.064551 0.017406 0.000000,
        -0.064679 0.017406 0.000000,
        -0.064935 0.016015 0.000000,
        -0.065286 0.014645 0.000000,
        -0.023718 0.017886 0.000000,
        -0.017912 0.017886 0.000000,
        -0.028378 0.017391 0.000000,
        -0.031628 0.016253 0.000000,
        -0.034504 0.014395 0.000000,
        -0.036416 0.012365 0.000000,
        -0.037783 0.009937 0.000000,
        -0.038703 0.006823 0.000000,
        -0.039037 0.002904 0.000000,
        -0.038676 -0.001231 0.000000,
        -0.037521 -0.004931 0.000000,
        -0.035860 -0.007646 0.000000,
        -0.033652 -0.009827 0.000000,
        -0.030967 -0.011421 0.000000,
        -0.027654 -0.012456 0.000000,
        -0.023501 -0.012842 0.000000,
        -0.017912 -0.012842 0.000000,
      ]
    }
    coordIndex [
      0, 1, 2, -1,
      2, 1, 7, -1,
      2, 7, 3, -1,
      3, 7, 6, -1,
      3, 6, 4, -1,
      4, 6, 5, -1,
      9, 24, 8, -1,
      8, 24, 23, -1,
      8, 23, 22, -1,
      16, 15, 8, -1,
      8, 15, 14, -1,
      8, 14, 10, -1,
      22, 21, 8, -1,
      8, 21, 20, -1,
      8, 20, 19, -1,
      19, 18, 8, -1,
      8, 18, 17, -1,
      8, 17, 16, -1,
      13, 12, 14, -1,
      14, 12, 11, -1,
      14, 11, 10, -1,
    ]
  }
}

Shape {
  appearance Appearance {
    material Material {
      diffuseColor 0.0000 1.0000 0.0000
      specularColor 0.0000 0.5020 0.0000
      ambientIntensity 0.2
      transparency 0.0000
      shininess 0.5
    }
  }
  geometry IndexedFaceSet {
    ccw TRUE
    solid FALSE
    coord DEF co Coordinate {
      point [
        -0.068765 0.157480 0.125984,
        -0.068765 0.098425 0.125984,
        -0.068765 0.157480 0.118110,
        -0.068765 0.098425 0.118110,
        -0.265615 0.157480 0.125984,
        -0.265615 0.157480 0.118110,
        -0.265615 0.098425 0.125984,
        -0.265615 0.098425 0.118110,
        -0.265615 -0.156233 0.125984,
        -0.265615 -0.097178 0.125984,
        -0.265615 -0.156233 0.118110,
        -0.265615 -0.097178 0.118110,
        -0.068765 -0.156233 0.125984,
        -0.068765 -0.156233 0.118110,
        -0.068765 -0.097178 0.125984,
        -0.068765 -0.097178 0.118110,
      ]
    }
    coordIndex [
      0, 1, 2, -1,
      2, 1, 3, -1,
      4, 0, 5, -1,
      5, 0, 2, -1,
      6, 4, 7, -1,
      7, 4, 5, -1,
      1, 6, 3, -1,
      3, 6, 7, -1,
      4, 6, 0, -1,
      0, 6, 1, -1,
      7, 5, 3, -1,
      3, 5, 2, -1,
      8, 9, 10, -1,
      10, 9, 11, -1,
      12, 8, 13, -1,
      13, 8, 10, -1,
      14, 12, 15, -1,
      15, 12, 13, -1,
      9, 14, 11, -1,
      11, 14, 15, -1,
      12, 14, 8, -1,
      8, 14, 9, -1,
      15, 13, 11, -1,
      11, 13, 10, -1,
    ]
  }
}
